<svg aria-hidden="true" style="position: absolute; width: 0; height: 0; overflow: hidden;" version="1.1" xmlns="http://www.w3.org/2000/svg" xmlns:xlink="http://www.w3.org/1999/xlink">
<defs>
<symbol id="icon-add-to-list" viewBox="0 0 20 20">
<title>add-to-list</title>
<path d="M19.4 9h-3.4v-3.4c0-0.6-0.4-0.6-1-0.6s-1 0-1 0.6v3.4h-3.4c-0.6 0-0.6 0.4-0.6 1s0 1 0.6 1h3.4v3.4c0 0.6 0.4 0.6 1 0.6s1 0 1-0.6v-3.4h3.4c0.6 0 0.6-0.4 0.6-1s0-1-0.6-1zM7.4 9h-6.8c-0.6 0-0.6 0.4-0.6 1s0 1 0.6 1h6.8c0.6 0 0.6-0.4 0.6-1s0-1-0.6-1zM7.4 14h-6.8c-0.6 0-0.6 0.4-0.6 1s0 1 0.6 1h6.8c0.6 0 0.6-0.4 0.6-1s0-1-0.6-1zM7.4 4h-6.8c-0.6 0-0.6 0.4-0.6 1s0 1 0.6 1h6.8c0.6 0 0.6-0.4 0.6-1s0-1-0.6-1z"></path>
</symbol>
<symbol id="icon-controller-fast-backward" viewBox="0 0 20 20">
<title>controller-fast-backward</title>
<path d="M17.959 4.571l-7.203 4.949c0 0-0.279 0.201-0.279 0.481s0.279 0.479 0.279 0.479l7.203 4.951c0.572 0.38 1.041 0.099 1.041-0.626v-9.609c0-0.727-0.469-1.008-1.041-0.625zM8.883 4.571l-7.203 4.949c0 0-0.279 0.201-0.279 0.481s0.279 0.479 0.279 0.479l7.203 4.951c0.572 0.381 1.041 0.1 1.041-0.625v-9.61c0-0.727-0.469-1.008-1.041-0.625z"></path>
</symbol>
<symbol id="icon-warning" viewBox="0 0 20 20">
<title>warning</title>
<path d="M19.511 17.98l-8.907-16.632c-0.124-0.215-0.354-0.348-0.604-0.348s-0.481 0.133-0.604 0.348l-8.906 16.632c-0.121 0.211-0.119 0.471 0.005 0.68 0.125 0.211 0.352 0.34 0.598 0.34h17.814c0.245 0 0.474-0.129 0.598-0.34 0.124-0.209 0.126-0.469 0.006-0.68zM11 17h-2v-2h2v2zM11 13.5h-2v-6.5h2v6.5z"></path>
</symbol>
<symbol id="icon-arrow-long-down" viewBox="0 0 20 20">
<title>arrow-long-down</title>
<path d="M10 19.25l-5.5-5.25h3.5v-13h4v13h3.5l-5.5 5.25z"></path>
</symbol>
<symbol id="icon-arrow-long-left" viewBox="0 0 20 20">
<title>arrow-long-left</title>
<path d="M0.75 10l5.25-5.5v3.5h13v4h-13v3.5l-5.25-5.5z"></path>
</symbol>
<symbol id="icon-arrow-long-right" viewBox="0 0 20 20">
<title>arrow-long-right</title>
<path d="M14 15.5v-3.5h-13v-4h13v-3.5l5.25 5.5-5.25 5.5z"></path>
</symbol>
<symbol id="icon-arrow-long-up" viewBox="0 0 20 20">
<title>arrow-long-up</title>
<path d="M10 0.75l5.5 5.25h-3.5v13h-4v-13h-3.5l5.5-5.25z"></path>
</symbol>
<symbol id="icon-bookmark" viewBox="0 0 20 20">
<title>bookmark</title>
<path d="M14 2v17l-4-4-4 4v-17c0-0.553 0.585-1.020 1-1h6c0.689-0.020 1 0.447 1 1z"></path>
</symbol>
<symbol id="icon-bookmarks" viewBox="0 0 20 20">
<title>bookmarks</title>
<path d="M15 0h-4c-0.553 0-1 0.447-1 1l0.023 0.222c1.102 0 2 0.897 2 2v11.359l0.977-1.181 3 3.6v-16c0-0.553-0.447-1-1-1zM9.023 3h-4.023c-0.553 0-1 0.447-1 1v16l3-3.6 3 3.6v-16c0-0.553-0.424-1-0.977-1z"></path>
</symbol>
<symbol id="icon-chevron-down" viewBox="0 0 20 20">
<title>chevron-down</title>
<path d="M4.516 7.548c0.436-0.446 1.043-0.481 1.576 0l3.908 3.747 3.908-3.747c0.533-0.481 1.141-0.446 1.574 0 0.436 0.445 0.408 1.197 0 1.615-0.406 0.418-4.695 4.502-4.695 4.502-0.217 0.223-0.502 0.335-0.787 0.335s-0.57-0.112-0.789-0.335c0 0-4.287-4.084-4.695-4.502s-0.436-1.17 0-1.615z"></path>
</symbol>
<symbol id="icon-chevron-left" viewBox="0 0 20 20">
<title>chevron-left</title>
<path d="M12.452 4.516c0.446 0.436 0.481 1.043 0 1.576l-3.747 3.908 3.747 3.908c0.481 0.533 0.446 1.141 0 1.574-0.445 0.436-1.197 0.408-1.615 0-0.418-0.406-4.502-4.695-4.502-4.695-0.223-0.217-0.335-0.502-0.335-0.787s0.112-0.57 0.335-0.789c0 0 4.084-4.287 4.502-4.695s1.17-0.436 1.615 0z"></path>
</symbol>
<symbol id="icon-chevron-right" viewBox="0 0 20 20">
<title>chevron-right</title>
<path d="M9.163 4.516c0.418 0.408 4.502 4.695 4.502 4.695 0.223 0.219 0.335 0.504 0.335 0.789s-0.112 0.57-0.335 0.787c0 0-4.084 4.289-4.502 4.695-0.418 0.408-1.17 0.436-1.615 0-0.446-0.434-0.481-1.041 0-1.574l3.747-3.908-3.747-3.908c-0.481-0.533-0.446-1.141 0-1.576s1.197-0.409 1.615 0z"></path>
</symbol>
<symbol id="icon-chevron-small-down" viewBox="0 0 20 20">
<title>chevron-small-down</title>
<path d="M13.418 7.859c0.271-0.268 0.709-0.268 0.978 0s0.272 0.701 0 0.969l-3.908 3.83c-0.27 0.268-0.707 0.268-0.979 0l-3.908-3.83c-0.27-0.267-0.27-0.701 0-0.969s0.709-0.268 0.978 0l3.421 3.141 3.418-3.141z"></path>
</symbol>
<symbol id="icon-chevron-small-left" viewBox="0 0 20 20">
<title>chevron-small-left</title>
<path d="M12.141 13.418c0.268 0.271 0.268 0.709 0 0.978s-0.701 0.272-0.969 0l-3.83-3.908c-0.268-0.27-0.268-0.707 0-0.979l3.83-3.908c0.267-0.27 0.701-0.27 0.969 0s0.268 0.709 0 0.978l-3.141 3.421 3.141 3.418z"></path>
</symbol>
<symbol id="icon-chevron-small-right" viewBox="0 0 20 20">
<title>chevron-small-right</title>
<path d="M11 10l-3.141-3.42c-0.268-0.27-0.268-0.707 0-0.978 0.268-0.27 0.701-0.27 0.969 0l3.83 3.908c0.268 0.271 0.268 0.709 0 0.979l-3.83 3.908c-0.267 0.272-0.701 0.27-0.969 0s-0.268-0.707 0-0.978l3.141-3.419z"></path>
</symbol>
<symbol id="icon-chevron-small-up" viewBox="0 0 20 20">
<title>chevron-small-up</title>
<path d="M6.582 12.141c-0.271 0.268-0.709 0.268-0.978 0s-0.272-0.701 0-0.969l3.908-3.83c0.27-0.268 0.707-0.268 0.979 0l3.908 3.83c0.27 0.267 0.27 0.701 0 0.969s-0.709 0.268-0.979 0l-3.42-3.141-3.418 3.141z"></path>
</symbol>
<symbol id="icon-chevron-thin-down" viewBox="0 0 20 20">
<title>chevron-thin-down</title>
<path d="M17.418 6.109c0.272-0.268 0.709-0.268 0.979 0s0.271 0.701 0 0.969l-7.908 7.83c-0.27 0.268-0.707 0.268-0.979 0l-7.908-7.83c-0.27-0.268-0.27-0.701 0-0.969s0.709-0.268 0.979 0l7.419 7.141 7.418-7.141z"></path>
</symbol>
<symbol id="icon-chevron-thin-left" viewBox="0 0 20 20">
<title>chevron-thin-left</title>
<path d="M13.891 17.418c0.268 0.272 0.268 0.709 0 0.979s-0.701 0.271-0.969 0l-7.83-7.908c-0.268-0.27-0.268-0.707 0-0.979l7.83-7.908c0.268-0.27 0.701-0.27 0.969 0s0.268 0.709 0 0.979l-7.141 7.419 7.141 7.418z"></path>
</symbol>
<symbol id="icon-chevron-thin-right" viewBox="0 0 20 20">
<title>chevron-thin-right</title>
<path d="M13.25 10l-7.141-7.42c-0.268-0.27-0.268-0.707 0-0.979 0.268-0.27 0.701-0.27 0.969 0l7.83 7.908c0.268 0.271 0.268 0.709 0 0.979l-7.83 7.908c-0.268 0.271-0.701 0.27-0.969 0s-0.268-0.707 0-0.979l7.141-7.417z"></path>
</symbol>
<symbol id="icon-chevron-thin-up" viewBox="0 0 20 20">
<title>chevron-thin-up</title>
<path d="M2.582 13.891c-0.272 0.268-0.709 0.268-0.979 0s-0.271-0.701 0-0.969l7.908-7.83c0.27-0.268 0.707-0.268 0.979 0l7.908 7.83c0.27 0.268 0.27 0.701 0 0.969s-0.709 0.268-0.978 0l-7.42-7.141-7.418 7.141z"></path>
</symbol>
<symbol id="icon-cloud" viewBox="0 0 20 20">
<title>cloud</title>
<path d="M20 11.32c0 2.584-2.144 4.68-4.787 4.68h-11.596c-1.998 0-3.617-1.584-3.617-3.537 0-1.951 1.619-3.535 3.617-3.535 0.146 0 0.288 0.012 0.429 0.027-0.037-0.246-0.057-0.498-0.057-0.756 0-2.871 2.381-5.199 5.32-5.199 2.407 0 4.439 1.562 5.096 3.707 0.263-0.043 0.532-0.066 0.809-0.066 2.642 0 4.786 2.093 4.786 4.679z"></path>
</symbol>
<symbol id="icon-controller-fast-forward" viewBox="0 0 20 20">
<title>controller-fast-forward</title>
<path d="M9.244 9.52l-7.203-4.949c-0.572-0.383-1.041-0.102-1.041 0.625v9.609c0 0.725 0.469 1.006 1.041 0.625l7.203-4.951c0 0 0.279-0.199 0.279-0.478s-0.279-0.481-0.279-0.481zM18.6 10.001c0 0.279-0.279 0.478-0.279 0.478l-7.203 4.951c-0.572 0.381-1.041 0.1-1.041-0.625v-9.609c0-0.727 0.469-1.008 1.041-0.625l7.202 4.949c0 0 0.28 0.201 0.28 0.481z"></path>
</symbol>
<symbol id="icon-controller-jump-to-start" viewBox="0 0 20 20">
<title>controller-jump-to-start</title>
<path d="M14.959 4.571l-7.203 4.949c0 0-0.279 0.201-0.279 0.481s0.279 0.479 0.279 0.479l7.203 4.951c0.572 0.38 1.041 0.099 1.041-0.626v-9.609c0-0.727-0.469-1.008-1.041-0.625zM6 4h-1c-0.553 0-1 0.048-1 0.6v10.8c0 0.552 0.447 0.6 1 0.6h1c0.553 0 1-0.048 1-0.6v-10.8c0-0.552-0.447-0.6-1-0.6z"></path>
</symbol>
<symbol id="icon-controller-next" viewBox="0 0 20 20">
<title>controller-next</title>
<path d="M12.244 9.52l-7.203-4.949c-0.572-0.383-1.041-0.102-1.041 0.625v9.609c0 0.725 0.469 1.006 1.041 0.625l7.203-4.951c0 0 0.279-0.199 0.279-0.478s-0.279-0.481-0.279-0.481zM14 4h1c0.553 0 1 0.048 1 0.6v10.8c0 0.552-0.447 0.6-1 0.6h-1c-0.553 0-1-0.048-1-0.6v-10.8c0-0.552 0.447-0.6 1-0.6z"></path>
</symbol>
<symbol id="icon-controller-paus" viewBox="0 0 20 20">
<title>controller-paus</title>
<path d="M15 3h-2c-0.553 0-1 0.048-1 0.6v12.8c0 0.552 0.447 0.6 1 0.6h2c0.553 0 1-0.048 1-0.6v-12.8c0-0.552-0.447-0.6-1-0.6zM7 3h-2c-0.553 0-1 0.048-1 0.6v12.8c0 0.552 0.447 0.6 1 0.6h2c0.553 0 1-0.048 1-0.6v-12.8c0-0.552-0.447-0.6-1-0.6z"></path>
</symbol>
<symbol id="icon-controller-play" viewBox="0 0 20 20">
<title>controller-play</title>
<path d="M15 10.001c0 0.299-0.305 0.514-0.305 0.514l-8.561 5.303c-0.624 0.409-1.134 0.106-1.134-0.669v-10.297c0-0.777 0.51-1.078 1.135-0.67l8.561 5.305c-0.001 0 0.304 0.215 0.304 0.514z"></path>
</symbol>
<symbol id="icon-controller-record" viewBox="0 0 20 20">
<title>controller-record</title>
<path d="M10 3c-3.866 0-7 3.133-7 7 0 3.865 3.134 7 7 7s7-3.135 7-7c0-3.867-3.134-7-7-7z"></path>
</symbol>
<symbol id="icon-controller-stop" viewBox="0 0 20 20">
<title>controller-stop</title>
<path d="M16 4.995v9.808c0 0.661-0.536 1.197-1.196 1.197h-9.807c-0.551 0-0.997-0.446-0.997-0.997v-9.807c0-0.66 0.536-1.196 1.196-1.196h9.808c0.55 0 0.996 0.446 0.996 0.995z"></path>
</symbol>
<symbol id="icon-controller-volume" viewBox="0 0 20 20">
<title>controller-volume</title>
<path d="M19 13.805c0 0.657-0.538 1.195-1.195 1.195h-16.272c-0.88 0-0.982-0.371-0.229-0.822l16.323-9.055c0.755-0.453 1.373-0.104 1.373 0.777v7.905z"></path>
</symbol>
<symbol id="icon-dot-single" viewBox="0 0 20 20">
<title>dot-single</title>
<path d="M7.8 10c0 1.215 0.986 2.2 2.201 2.2s2.199-0.986 2.199-2.2c0-1.215-0.984-2.199-2.199-2.199s-2.201 0.984-2.201 2.199z"></path>
</symbol>
<symbol id="icon-dots-three-horizontal" viewBox="0 0 20 20">
<title>dots-three-horizontal</title>
<path d="M10.001 7.8c-1.215 0-2.201 0.985-2.201 2.2s0.986 2.2 2.201 2.2c1.215 0 2.199-0.985 2.199-2.2s-0.984-2.2-2.199-2.2zM3.001 7.8c-1.215 0-2.201 0.985-2.201 2.2s0.986 2.2 2.201 2.2c1.215 0 2.199-0.986 2.199-2.2s-0.984-2.2-2.199-2.2zM17.001 7.8c-1.215 0-2.201 0.985-2.201 2.2s0.986 2.2 2.201 2.2c1.215 0 2.199-0.985 2.199-2.2s-0.984-2.2-2.199-2.2z"></path>
</symbol>
<symbol id="icon-dots-three-vertical" viewBox="0 0 20 20">
<title>dots-three-vertical</title>
<path d="M10.001 7.8c-1.215 0-2.201 0.985-2.201 2.2s0.986 2.2 2.201 2.2c1.215 0 2.199-0.985 2.199-2.2s-0.984-2.2-2.199-2.2zM10.001 5.2c1.215 0 2.199-0.986 2.199-2.2s-0.984-2.2-2.199-2.2c-1.215 0-2.201 0.985-2.201 2.2s0.986 2.2 2.201 2.2zM10.001 14.8c-1.215 0-2.201 0.985-2.201 2.2s0.986 2.2 2.201 2.2c1.215 0 2.199-0.985 2.199-2.2s-0.984-2.2-2.199-2.2z"></path>
</symbol>
<symbol id="icon-dots-two-horizontal" viewBox="0 0 20 20">
<title>dots-two-horizontal</title>
<path d="M14.001 7.8c-1.215 0-2.201 0.985-2.201 2.2s0.986 2.2 2.201 2.2c1.215 0 2.199-0.985 2.199-2.2s-0.984-2.2-2.199-2.2zM6.001 7.8c-1.215 0-2.201 0.985-2.201 2.2s0.986 2.2 2.201 2.2c1.215 0 2.199-0.986 2.199-2.2s-0.984-2.2-2.199-2.2z"></path>
</symbol>
<symbol id="icon-dots-two-vertical" viewBox="0 0 20 20">
<title>dots-two-vertical</title>
<path d="M10.001 8.2c1.215 0 2.199-0.986 2.199-2.2s-0.984-2.2-2.199-2.2c-1.215 0-2.201 0.985-2.201 2.2s0.986 2.2 2.201 2.2zM10.001 11.8c-1.215 0-2.201 0.985-2.201 2.2s0.986 2.2 2.201 2.2c1.215 0 2.199-0.985 2.199-2.2s-0.984-2.2-2.199-2.2z"></path>
</symbol>
<symbol id="icon-download" viewBox="0 0 20 20">
<title>download</title>
<path d="M15 7h-3v-6h-4v6h-3l5 5 5-5zM19.338 13.532c-0.21-0.224-1.611-1.723-2.011-2.114-0.265-0.259-0.644-0.418-1.042-0.418h-1.757l3.064 2.994h-3.544c-0.102 0-0.194 0.052-0.24 0.133l-0.816 1.873h-5.984l-0.816-1.873c-0.046-0.081-0.139-0.133-0.24-0.133h-3.544l3.063-2.994h-1.756c-0.397 0-0.776 0.159-1.042 0.418-0.4 0.392-1.801 1.891-2.011 2.114-0.489 0.521-0.758 0.936-0.63 1.449l0.561 3.074c0.128 0.514 0.691 0.936 1.252 0.936h16.312c0.561 0 1.124-0.422 1.252-0.936l0.561-3.074c0.126-0.513-0.142-0.928-0.632-1.449z"></path>
</symbol>
<symbol id="icon-layers" viewBox="0 0 20 20">
<title>layers</title>
<path d="M9.248 11.601c0.45 0.313 1.050 0.313 1.5 0l9.088-5.281c0.236-0.164 0.21-0.518-0.048-0.646l-9.205-3.537c-0.368-0.183-0.802-0.183-1.17 0l-9.205 3.537c-0.258 0.127-0.284 0.482-0.048 0.646l9.088 5.281zM19.788 10.811l-2.486-1.233-5.725 3.327c-0.469 0.309-1.014 0.471-1.579 0.471s-1.11-0.163-1.579-0.471l-5.721-3.329-2.49 1.234c-0.258 0.128-0.284 0.482-0.048 0.646l9.088 6.309c0.45 0.313 1.050 0.313 1.5 0l9.088-6.309c0.236-0.163 0.21-0.517-0.048-0.645z"></path>
</symbol>
<symbol id="icon-open-book" viewBox="0 0 20 20">
<title>open-book</title>
<path d="M10.595 5.196l0.446 1.371c0.369-0.316 0.835-0.599 1.441-0.795 0.59-0.192 1.111-0.3 1.582-0.362l-0.43-1.323c-0.476 0.069-1.001 0.18-1.58 0.368s-1.055 0.45-1.459 0.741zM11.522 8.051l0.446 1.371c0.369-0.316 0.835-0.599 1.441-0.795 0.59-0.192 1.111-0.3 1.582-0.362l-0.43-1.323c-0.476 0.069-1.001 0.18-1.58 0.368-0.578 0.187-1.054 0.449-1.459 0.741zM12.45 10.905l0.446 1.371c0.369-0.316 0.835-0.599 1.441-0.795 0.59-0.192 1.111-0.3 1.582-0.362l-0.43-1.323c-0.476 0.069-1.001 0.18-1.58 0.368-0.579 0.187-1.055 0.45-1.459 0.741zM5.388 13.077l0.43 1.323c0.417-0.226 0.902-0.445 1.492-0.636 0.606-0.197 1.149-0.242 1.633-0.203l-0.446-1.371c-0.499 0.002-1.038 0.070-1.615 0.257-0.579 0.188-1.069 0.406-1.494 0.63zM3.533 7.368l0.43 1.323c0.417-0.226 0.902-0.444 1.492-0.636 0.606-0.197 1.149-0.242 1.633-0.203l-0.445-1.372c-0.499 0.003-1.038 0.070-1.616 0.258-0.579 0.188-1.069 0.406-1.494 0.63zM4.46 10.223l0.43 1.323c0.417-0.226 0.902-0.445 1.492-0.636 0.606-0.197 1.149-0.242 1.633-0.203l-0.445-1.372c-0.499 0.002-1.038 0.070-1.615 0.257-0.579 0.188-1.070 0.407-1.495 0.631zM11.064 1.41c-1.723 0.56-2.623 1.752-3.053 2.559-0.822-0.4-2.25-0.835-3.973-0.275-2.523 0.82-3.969 2.627-3.969 2.627l4.095 12.587c0.126 0.387 0.646 0.477 0.878 0.143 0.499-0.719 1.46-1.658 3.257-2.242 1.718-0.558 2.969 0.054 3.655 0.578 0.272 0.208 0.662 0.060 0.762-0.268 0.252-0.827 0.907-2.040 2.61-2.593 1.799-0.585 3.129-0.389 3.956-0.1 0.385 0.134 0.75-0.242 0.625-0.629l-4.088-12.594c0 0-2.232-0.612-4.755 0.207zM10.951 15.256c-0.819-0.244-1.901-0.358-3.141 0.044-1.251 0.406-2.127 0.949-2.699 1.404l-3.245-9.982c0.358-0.358 1.187-1.042 2.662-1.521 1.389-0.451 2.528-0.065 3.279 0.378l3.144 9.677zM17.845 12.567c-0.731-0.032-1.759 0.044-3.010 0.451-1.24 0.403-2.048 1.132-2.567 1.81l-3.144-9.677c0.346-0.8 1.040-1.782 2.43-2.233 1.474-0.479 2.547-0.413 3.047-0.334l3.244 9.983z"></path>
</symbol>
<symbol id="icon-save" viewBox="0 0 20 20">
<title>save</title>
<path d="M15.173 2h-11.173c-1.101 0-2 0.9-2 2v12c0 1.1 0.899 2 2 2h12c1.101 0 2-0.9 2-2v-10.873l-2.827-3.127zM14 8c0 0.549-0.45 1-1 1h-6c-0.55 0-1-0.451-1-1v-5h8v5zM13 4h-2v4h2v-4z"></path>
</symbol>
<symbol id="icon-select-arrows" viewBox="0 0 20 20">
<title>select-arrows</title>
<path d="M10 1l-5 7h10l-5-7zM10 19l5-7h-10l5 7z"></path>
</symbol>
<symbol id="icon-trash" viewBox="0 0 20 20">
<title>trash</title>
<path d="M3.389 7.113l1.101 10.908c0.061 0.461 2.287 1.977 5.51 1.979 3.225-0.002 5.451-1.518 5.511-1.979l1.102-10.908c-1.684 0.942-4.201 1.387-6.613 1.387-2.41 0-4.928-0.445-6.611-1.387zM13.168 1.51l-0.859-0.951c-0.332-0.473-0.692-0.559-1.393-0.559h-1.831c-0.7 0-1.061 0.086-1.392 0.559l-0.859 0.951c-2.57 0.449-4.434 1.64-4.434 2.519v0.17c0 1.547 3.403 2.801 7.6 2.801 4.198 0 7.601-1.254 7.601-2.801v-0.17c0-0.879-1.863-2.070-4.433-2.519zM12.070 4.34l-1.070-1.34h-2l-1.068 1.34h-1.7c0 0 1.862-2.221 2.111-2.522 0.19-0.23 0.384-0.318 0.636-0.318h2.043c0.253 0 0.447 0.088 0.637 0.318 0.248 0.301 2.111 2.522 2.111 2.522h-1.7z"></path>
</symbol>
<symbol id="icon-add-user" viewBox="0 0 20 20">
<title>add-user</title>
<path d="M15.989 19.129c0.011-2.129-2.186-3.389-4.317-4.307-2.123-0.914-2.801-1.684-2.801-3.334 0-0.989 0.648-0.667 0.932-2.481 0.12-0.752 0.692-0.012 0.802-1.729 0-0.684-0.313-0.854-0.313-0.854s0.159-1.013 0.221-1.793c0.064-0.817-0.398-2.56-2.301-3.095-0.332-0.341-0.557-0.882 0.467-1.424-2.24-0.104-2.761 1.068-3.954 1.93-1.015 0.756-1.289 1.953-1.24 2.59 0.065 0.78 0.223 1.793 0.223 1.793s-0.314 0.17-0.314 0.854c0.11 1.718 0.684 0.977 0.803 1.729 0.284 1.814 0.933 1.492 0.933 2.481 0 1.65-0.212 2.21-2.336 3.124-2.131 0.917-2.794 2.387-2.783 4.516 0.003 0.637-0.011 0.871-0.011 0.871h16c0 0-0.014-0.234-0.011-0.871zM17 10v-3h-2v3h-3v2h3v3h2v-3h3v-2h-3z"></path>
</symbol>
<symbol id="icon-address" viewBox="0 0 20 20">
<title>address</title>
<path d="M19.799 5.165l-2.375-1.83c-0.135-0.093-0.324-0.176-0.521-0.237-0.198-0.061-0.403-0.098-0.567-0.098h-6.836l0.801 5h6.035c0.164 0 0.369-0.037 0.566-0.098s0.387-0.145 0.521-0.236l2.375-1.832c0.135-0.091 0.202-0.212 0.202-0.334s-0.067-0.243-0.201-0.335zM8.5 1h-1c-0.276 0-0.5 0.224-0.5 0.5v3.5h-3.336c-0.166 0-0.37 0.037-0.567 0.099-0.198 0.060-0.387 0.143-0.521 0.236l-2.375 1.83c-0.135 0.091-0.201 0.213-0.201 0.335s0.066 0.242 0.201 0.335l2.375 1.832c0.134 0.091 0.323 0.175 0.521 0.235s0.401 0.098 0.567 0.098h3.336v8.5c0 0.276 0.224 0.5 0.5 0.5h1c0.276 0 0.5-0.224 0.5-0.5v-17c0-0.276-0.224-0.5-0.5-0.5z"></path>
</symbol>
<symbol id="icon-archive" viewBox="0 0 20 20">
<title>archive</title>
<path d="M13.981 2h-7.963c0 0-0.996 0-0.996 1h9.955c0-1-0.996-1-0.996-1zM16.968 5c0-1-0.995-1-0.995-1h-11.946c0 0-0.995 0-0.995 1v1h13.936v-1zM18.958 6c-0.588-0.592-0.588-0.592-0.588-0.592v1.592h-16.74v-1.592c0 0 0 0-0.589 0.592s-1.011 0.75-0.774 2c0.236 1.246 1.379 8.076 1.549 9 0.186 1.014 1.217 1 1.217 1h13.936c0 0 1.030 0.014 1.217-1 0.17-0.924 1.312-7.754 1.549-9 0.235-1.25-0.187-1.408-0.777-2zM14 11.997c0 0.554-0.449 1.003-1.003 1.003h-5.994c-0.554 0-1.003-0.449-1.003-1.003v-1.997h1v2h6v-2h1v1.997z"></path>
</symbol>
<symbol id="icon-area-graph" viewBox="0 0 20 20">
<title>area-graph</title>
<path d="M20 2v16h-19.68c-0.318 0-0.416-0.209-0.216-0.465l4.469-5.748c0.199-0.256 0.553-0.283 0.789-0.062l1.419 1.334c0.235 0.221 0.572 0.178 0.747-0.096l3.047-4.74c0.175-0.273 0.509-0.312 0.741-0.090l2.171 2.096c0.232 0.225 0.559 0.18 0.724-0.1l5.133-7.785c0.166-0.282 0.406-0.344 0.656-0.344z"></path>
</symbol>
<symbol id="icon-attachment" viewBox="0 0 20 20">
<title>attachment</title>
<path d="M5.602 19.8c-1.293 0-2.504-0.555-3.378-1.44-1.695-1.716-2.167-4.711 0.209-7.116 1.391-1.408 6.966-7.053 9.748-9.87 0.988-1 2.245-1.387 3.448-1.060 1.183 0.32 2.151 1.301 2.468 2.498 0.322 1.22-0.059 2.493-1.046 3.493l-9.323 9.44c-0.532 0.539-1.134 0.858-1.738 0.922-0.599 0.064-1.17-0.13-1.57-0.535-0.724-0.736-0.828-2.117 0.378-3.337l6.548-6.63c0.269-0.272 0.705-0.272 0.974 0s0.269 0.714 0 0.986l-6.549 6.631c-0.566 0.572-0.618 1.119-0.377 1.364 0.106 0.106 0.266 0.155 0.451 0.134 0.283-0.029 0.606-0.216 0.909-0.521l9.323-9.439c0.64-0.648 0.885-1.41 0.69-2.145-0.192-0.725-0.778-1.318-1.493-1.513-0.726-0.197-1.48 0.052-2.12 0.7-2.782 2.818-8.356 8.462-9.748 9.87-1.816 1.839-1.381 3.956-0.209 5.143 1.173 1.187 3.262 1.629 5.079-0.212l9.748-9.87c0.269-0.272 0.705-0.272 0.974 0s0.269 0.714 0 0.987l-9.748 9.87c-1.149 1.162-2.436 1.65-3.648 1.65z"></path>
</symbol>
<symbol id="icon-back-in-time" viewBox="0 0 20 20">
<title>back-in-time</title>
<path d="M11 1.799c-4.445 0-8.061 3.562-8.169 7.996v0.205h-2.372l3.594 3.894 3.494-3.894h-2.672v-0.205c0.107-3.303 2.808-5.945 6.125-5.945 3.386 0 6.131 2.754 6.131 6.15s-2.745 6.15-6.131 6.15c-1.357 0-2.611-0.445-3.627-1.193l-1.406 1.504c1.388 1.088 3.135 1.738 5.033 1.738 4.515 0 8.174-3.67 8.174-8.199s-3.659-8.201-8.174-8.201zM10 5v5c0 0.13 0.027 0.26 0.077 0.382s0.124 0.233 0.216 0.325l3.2 3.2c0.283-0.183 0.55-0.389 0.787-0.628l-2.28-2.279v-6h-2z"></path>
</symbol>
<symbol id="icon-bar-graph" viewBox="0 0 20 20">
<title>bar-graph</title>
<path d="M17 1h-2c-0.552 0-1 0.447-1 1v16.992h4v-16.992c0-0.553-0.447-1-1-1zM11 7h-2c-0.552 0-1 0.447-1 1v10.992h4v-10.992c0-0.553-0.447-1-1-1zM5 13h-2c-0.552 0-1 0.447-1 1v4.992h4v-4.992c0-0.553-0.447-1-1-1z"></path>
</symbol>
<symbol id="icon-beamed-note" viewBox="0 0 20 20">
<title>beamed-note</title>
<path d="M17 1l-0.002 13c0 1.243-1.301 3-3.748 3-1.243 0-2.25-0.653-2.25-1.875 0-1.589 1.445-2.55 3-2.55 0.432 0 0.754 0.059 1 0.123v-7.334l-7 1.273v9.363h-0.002c0 1.243-1.301 3-3.748 3-1.243 0-2.25-0.653-2.25-1.875 0-1.589 1.445-2.55 3-2.55 0.432 0 0.754 0.059 1 0.123v-11.698l11-2z"></path>
</symbol>
<symbol id="icon-bell" viewBox="0 0 20 20">
<title>bell</title>
<path d="M14.65 8.512c-2.28-4.907-3.466-6.771-7.191-6.693-1.327 0.027-1.009-0.962-2.021-0.587-1.010 0.375-0.143 0.924-1.177 1.773-2.902 2.383-2.635 4.587-1.289 9.84 0.567 2.213-1.367 2.321-0.602 4.465 0.559 1.564 4.679 2.219 9.025 0.607s7.086-4.814 6.527-6.378c-0.765-2.145-2.311-0.961-3.272-3.027zM10.924 16.595c-3.882 1.44-7.072 0.594-7.207 0.217-0.232-0.65 1.253-2.816 5.691-4.463s6.915-1.036 7.174-0.311c0.153 0.429-1.775 3.116-5.658 4.557zM9.676 13.101c-2.029 0.753-3.439 1.614-4.353 2.389 0.643 0.584 1.847 0.726 3.046 0.281 1.527-0.565 2.466-1.866 2.095-2.904-0.005-0.013-0.011-0.023-0.016-0.036-0.251 0.082-0.508 0.171-0.772 0.27z"></path>
</symbol>
<symbol id="icon-block" viewBox="0 0 20 20">
<title>block</title>
<path d="M10 0.4c-5.303 0-9.601 4.298-9.601 9.6 0 5.303 4.298 9.601 9.601 9.601 5.301 0 9.6-4.298 9.6-9.601s-4.299-9.6-9.6-9.6zM2.399 10c0-4.197 3.402-7.6 7.6-7.6 1.829 0 3.506 0.647 4.817 1.723l-10.694 10.694c-1.076-1.312-1.723-2.988-1.723-4.817zM9.999 17.599c-1.828 0-3.505-0.646-4.815-1.722l10.694-10.693c1.075 1.312 1.722 2.987 1.722 4.816 0 4.197-3.404 7.599-7.601 7.599z"></path>
</symbol>
<symbol id="icon-box" viewBox="0 0 20 20">
<title>box</title>
<path d="M18.399 2h-16.799c-0.332 0-0.6 0.267-0.6 0.6v2.4h18v-2.4c0-0.333-0.27-0.6-0.601-0.6zM2 16.6c0 0.77 0.629 1.4 1.399 1.4h13.2c0.77 0 1.4-0.631 1.4-1.4v-10.6h-15.999v10.6zM7 8h6v2h-6v-2z"></path>
</symbol>
<symbol id="icon-briefcase" viewBox="0 0 20 20">
<title>briefcase</title>
<path d="M9 10h2v2h9c0 0-0.149-4.459-0.2-5.854-0.050-1.326-0.525-2.146-2-2.146h-3.208c-0.497-0.938-1.032-1.945-1.197-2.256-0.331-0.623-0.444-0.744-1.179-0.744h-4.433c-0.735 0-0.847 0.121-1.179 0.744-0.165 0.311-0.7 1.318-1.196 2.256h-3.209c-1.476 0-1.945 0.82-2 2.146s-0.199 5.854-0.199 5.854h9v-2zM7.649 2.916c0.23-0.432 0.308-0.516 0.817-0.516h3.067c0.509 0 0.588 0.084 0.816 0.516 0.086 0.16 0.318 0.6 0.575 1.084h-5.85c0.257-0.484 0.489-0.924 0.575-1.084zM11 15h-2v-2h-8.5c0 0 0.124 1.797 0.199 3.322 0.031 0.633 0.218 1.678 1.8 1.678h15.001c1.582 0 1.765-1.047 1.8-1.678 0.087-1.568 0.2-3.322 0.2-3.322h-8.5v2z"></path>
</symbol>
<symbol id="icon-calendar" viewBox="0 0 20 20">
<title>calendar</title>
<path d="M17 3h-1v2h-3v-2h-6v2h-3v-2h-1c-1.101 0-2 0.9-2 2v12c0 1.1 0.899 2 2 2h14c1.1 0 2-0.9 2-2v-12c0-1.1-0.9-2-2-2zM17 17h-14v-8h14v8zM6.5 1h-2v3.5h2v-3.5zM15.5 1h-2v3.5h2v-3.5z"></path>
</symbol>
<symbol id="icon-camera" viewBox="0 0 20 20">
<title>camera</title>
<path d="M10 8c-1.657 0-3 1.344-3 3s1.343 3 3 3c1.656 0 3-1.344 3-3s-1.344-3-3-3zM18 5h-2.4c-0.33 0-0.686-0.256-0.789-0.57l-0.621-1.861c-0.105-0.313-0.459-0.569-0.79-0.569h-6.8c-0.33 0-0.686 0.256-0.789 0.568l-0.622 1.862c-0.104 0.314-0.459 0.57-0.789 0.57h-2.4c-1.1 0-2 0.9-2 2v9c0 1.1 0.9 2 2 2h16c1.1 0 2-0.9 2-2v-9c0-1.1-0.9-2-2-2zM10 16c-2.762 0-5-2.238-5-5s2.238-5 5-5c2.761 0 5 2.238 5 5s-2.239 5-5 5zM17.5 8.2c-0.387 0-0.7-0.314-0.7-0.701 0-0.385 0.313-0.7 0.7-0.7s0.7 0.314 0.7 0.7c0 0.387-0.313 0.701-0.7 0.701z"></path>
</symbol>
<symbol id="icon-ccw" viewBox="0 0 20 20">
<title>ccw</title>
<path d="M0.685 10h2.372v-0.205c0.108-4.434 3.724-7.996 8.169-7.996 4.515 0 8.174 3.672 8.174 8.201s-3.659 8.199-8.174 8.199c-1.898 0-3.645-0.65-5.033-1.738l1.406-1.504c1.016 0.748 2.27 1.193 3.627 1.193 3.386 0 6.131-2.754 6.131-6.15s-2.745-6.15-6.131-6.15c-3.317 0-6.018 2.643-6.125 5.945v0.205h2.672l-3.494 3.894-3.594-3.894z"></path>
</symbol>
<symbol id="icon-chat" viewBox="0 0 20 20">
<title>chat</title>
<path d="M5.8 12.2v-6.2h-3.8c-1.1 0-2 0.9-2 2v6c0 1.1 0.9 2 2 2h1v3l3-3h5c1.1 0 2-0.9 2-2v-1.82c-0.064 0.014-0.132 0.021-0.2 0.021l-7-0.001zM18 1h-9c-1.1 0-2 0.9-2 2v8h7l3 3v-3h1c1.1 0 2-0.899 2-2v-6c0-1.1-0.9-2-2-2z"></path>
</symbol>
<symbol id="icon-check" viewBox="0 0 20 20">
<title>check</title>
<path d="M8.294 16.998c-0.435 0-0.847-0.203-1.111-0.553l-3.573-4.721c-0.465-0.613-0.344-1.486 0.27-1.951 0.615-0.467 1.488-0.344 1.953 0.27l2.351 3.104 5.911-9.492c0.407-0.652 1.267-0.852 1.921-0.445s0.854 1.266 0.446 1.92l-6.984 11.21c-0.242 0.391-0.661 0.635-1.12 0.656-0.022 0.002-0.042 0.002-0.064 0.002z"></path>
</symbol>
<symbol id="icon-circle-with-cross" viewBox="0 0 20 20">
<title>circle-with-cross</title>
<path d="M10 1.6c-4.639 0-8.4 3.761-8.4 8.4s3.761 8.4 8.4 8.4 8.4-3.761 8.4-8.4c0-4.639-3.761-8.4-8.4-8.4zM14.789 13.061l-1.729 1.729-3.060-3.061-3.061 3.060-1.729-1.729 3.062-3.060-3.061-3.061 1.729-1.728 3.060 3.060 3.061-3.061 1.729 1.729-3.062 3.061 3.061 3.061z"></path>
</symbol>
<symbol id="icon-circle-with-minus" viewBox="0 0 20 20">
<title>circle-with-minus</title>
<path d="M10 1.6c-4.639 0-8.4 3.761-8.4 8.4s3.761 8.4 8.4 8.4 8.4-3.761 8.4-8.4c0-4.639-3.761-8.4-8.4-8.4zM15 11h-10v-2h10v2z"></path>
</symbol>
<symbol id="icon-circle-with-plus" viewBox="0 0 20 20">
<title>circle-with-plus</title>
<path d="M10 1.6c-4.639 0-8.4 3.761-8.4 8.4s3.761 8.4 8.4 8.4 8.4-3.761 8.4-8.4c0-4.639-3.761-8.4-8.4-8.4zM15 11h-4v4h-2v-4h-4v-2h4v-4h2v4h4v2z"></path>
</symbol>
<symbol id="icon-clapperboard" viewBox="0 0 20 20">
<title>clapperboard</title>
<path d="M20 3v14c0 0.552-0.447 1-1 1h-18c-0.553 0-1-0.448-1-1v-14c0-0.553 0.447-1 1-1h1l3 3h2.5l-3-3h3l3 3h2.5l-3-3h3l3 3h2.5l-3-3h3.5c0.553 0 1 0.448 1 1z"></path>
</symbol>
<symbol id="icon-clipboard" viewBox="0 0 20 20">
<title>clipboard</title>
<path d="M15.6 2l-1.2 3h-8.8l-1.2-3c-0.771 0-1.4 0.629-1.4 1.4v15.2c0 0.77 0.629 1.4 1.399 1.4h11.2c0.77 0 1.4-0.631 1.4-1.4v-15.2c0.001-0.771-0.63-1.4-1.399-1.4zM13.6 4l0.9-2h-2.181l-0.719-2h-3.2l-0.72 2h-2.18l0.899 2h7.201z"></path>
</symbol>
<symbol id="icon-clock" viewBox="0 0 20 20">
<title>clock</title>
<path d="M10 0.4c-5.303 0-9.601 4.298-9.601 9.6 0 5.303 4.298 9.601 9.601 9.601 5.301 0 9.6-4.298 9.6-9.601s-4.299-9.6-9.6-9.6zM9.999 17.6c-4.197 0-7.6-3.402-7.6-7.6 0-4.197 3.402-7.6 7.6-7.6 4.197 0 7.601 3.402 7.601 7.6 0 4.197-3.404 7.6-7.601 7.6zM11 9.33v-5.33h-2v6.245l-3.546 2.048 1 1.732 4.115-2.377c0.238-0.137 0.431-0.473 0.431-0.748v-0.168l4.24-4.166c-0.198-0.271-0.411-0.529-0.647-0.766l-3.593 3.53z"></path>
</symbol>
<symbol id="icon-code" viewBox="0 0 20 20">
<title>code</title>
<path d="M5.719 14.75c-0.236 0-0.474-0.083-0.664-0.252l-5.060-4.498 5.341-4.748c0.412-0.365 1.044-0.33 1.411 0.083s0.33 1.045-0.083 1.412l-3.659 3.253 3.378 3.002c0.413 0.367 0.45 0.999 0.083 1.412-0.197 0.223-0.472 0.336-0.747 0.336zM14.664 14.748l5.341-4.748-5.060-4.498c-0.413-0.367-1.045-0.33-1.411 0.083s-0.33 1.045 0.083 1.412l3.378 3.003-3.659 3.252c-0.413 0.367-0.45 0.999-0.083 1.412 0.197 0.223 0.472 0.336 0.747 0.336 0.236 0 0.474-0.083 0.664-0.252zM9.986 16.165l2-12c0.091-0.545-0.277-1.060-0.822-1.151-0.547-0.092-1.061 0.277-1.15 0.822l-2 12c-0.091 0.545 0.277 1.060 0.822 1.151 0.056 0.009 0.11 0.013 0.165 0.013 0.48 0 0.904-0.347 0.985-0.835z"></path>
</symbol>
<symbol id="icon-cog" viewBox="0 0 20 20">
<title>cog</title>
<path d="M16.783 10c0-1.049 0.646-1.875 1.617-2.443-0.176-0.584-0.407-1.145-0.692-1.672-1.089 0.285-1.97-0.141-2.711-0.883-0.741-0.74-0.968-1.621-0.683-2.711-0.527-0.285-1.088-0.518-1.672-0.691-0.568 0.97-1.595 1.615-2.642 1.615-1.048 0-2.074-0.645-2.643-1.615-0.585 0.173-1.144 0.406-1.671 0.691 0.285 1.090 0.059 1.971-0.684 2.711-0.74 0.742-1.621 1.168-2.711 0.883-0.285 0.527-0.517 1.088-0.691 1.672 0.97 0.568 1.615 1.394 1.615 2.443 0 1.047-0.645 2.074-1.615 2.643 0.175 0.584 0.406 1.144 0.691 1.672 1.090-0.285 1.971-0.059 2.711 0.682s0.969 1.623 0.684 2.711c0.527 0.285 1.087 0.518 1.672 0.693 0.568-0.973 1.595-1.617 2.643-1.617 1.047 0 2.074 0.645 2.643 1.617 0.584-0.176 1.144-0.408 1.672-0.693-0.285-1.088-0.059-1.969 0.683-2.711 0.741-0.74 1.622-1.166 2.711-0.883 0.285-0.527 0.517-1.086 0.692-1.672-0.973-0.569-1.619-1.395-1.619-2.442zM10 13.652c-2.018 0-3.653-1.635-3.653-3.652 0-2.018 1.636-3.654 3.653-3.654s3.652 1.637 3.652 3.654c0 2.018-1.634 3.652-3.652 3.652z"></path>
</symbol>
<symbol id="icon-colours" viewBox="0 0 20 20">
<title>colours</title>
<path d="M3.179 5.998c-0.423-0.35-1.057-0.29-1.408 0.132l-1.277 1.539c-0.35 0.423-0.291 1.058 0.131 1.407l7.888 6.542-3.807-8.354-1.527-1.266zM7.013 2.683l-1.82 0.829c-0.499 0.228-0.722 0.825-0.495 1.324l4.25 9.325 0.213-9.179-0.822-1.804c-0.23-0.5-0.826-0.723-1.326-0.495zM14.211 2.887c0.013-0.55-0.427-1.010-0.976-1.023l-2-0.046c-0.549-0.013-1.009 0.427-1.022 0.976l-0.239 10.243 4.19-8.167 0.047-1.983zM19.191 3.837l-1.779-0.913c-0.489-0.25-1.096-0.055-1.347 0.434l-6.391 12.456c-0.251 0.489-0.056 1.096 0.434 1.347l1.779 0.913c0.489 0.251 1.095 0.056 1.346-0.433l6.391-12.456c0.251-0.491 0.056-1.097-0.433-1.348zM12.799 16.293c-0.252 0.492-0.855 0.686-1.346 0.434s-0.685-0.854-0.433-1.346 0.854-0.685 1.346-0.433c0.492 0.251 0.685 0.854 0.433 1.345z"></path>
</symbol>
<symbol id="icon-copy" viewBox="0 0 20 20">
<title>copy</title>
<path d="M11 0h-8c-0.553 0-1 0.447-1 1v12c0 0.552 0.447 1 1 1h5v2h2v-2h-1.999v-2h1.999v-2h-2v2h-4v-10h6v4h2v-5c0-0.552-0.447-1-1-1zM8 7v1h2v-2h-1c-0.553 0-1 0.447-1 1zM12 20h2v-2h-2v2zM12 8h2v-2h-2v2zM8 19c0 0.552 0.447 1 1 1h1v-2h-2v1zM17 6h-1v2h2v-1c0-0.552-0.447-1-1-1zM16 20h1c0.553 0 1-0.448 1-1v-1h-2v2zM16 12h2v-2h-2v2zM16 16h2v-2h-2v2z"></path>
</symbol>
<symbol id="icon-credit-card" viewBox="0 0 20 20">
<title>credit-card</title>
<path d="M18 3h-16c-1.101 0-2 0.9-2 2v10c0 1.1 0.899 2 2 2h16c1.1 0 2-0.9 2-2v-10c0-1.1-0.9-2-2-2zM18 15h-16v-6h16v6zM18 6h-16v-1h16v1zM4 11.1v0.6h0.6v-0.6h-0.6zM7.6 12.299v0.601h1.2v-0.601h0.6v-0.6h0.6v-0.6h-1.2v0.6h-0.601v0.6h-0.599zM10 12.9v-0.601h-0.601v0.601h0.601zM7 12.9v-0.601h-1.2v0.601h1.2zM7.6 11.699h0.6v-0.6h-1.2v1.199h0.6v-0.599zM5.199 12.299h0.601v-0.6h0.6v-0.6h-1.2v0.6h-0.6v0.6h-0.6v0.601h1.199v-0.601z"></path>
</symbol>
<symbol id="icon-cross" viewBox="0 0 20 20">
<title>cross</title>
<path d="M14.348 14.849c-0.469 0.469-1.229 0.469-1.697 0l-2.651-3.030-2.651 3.029c-0.469 0.469-1.229 0.469-1.697 0-0.469-0.469-0.469-1.229 0-1.697l2.758-3.15-2.759-3.152c-0.469-0.469-0.469-1.228 0-1.697s1.228-0.469 1.697 0l2.652 3.031 2.651-3.031c0.469-0.469 1.228-0.469 1.697 0s0.469 1.229 0 1.697l-2.758 3.152 2.758 3.15c0.469 0.469 0.469 1.229 0 1.698z"></path>
</symbol>
<symbol id="icon-cw" viewBox="0 0 20 20">
<title>cw</title>
<path d="M19.315 10h-2.372v-0.205c-0.108-4.434-3.724-7.996-8.169-7.996-4.515 0-8.174 3.672-8.174 8.201s3.659 8.199 8.174 8.199c1.898 0 3.645-0.65 5.033-1.738l-1.406-1.504c-1.016 0.748-2.27 1.193-3.627 1.193-3.386 0-6.131-2.754-6.131-6.15s2.745-6.15 6.131-6.15c3.317 0 6.018 2.643 6.125 5.945v0.205h-2.672l3.494 3.894 3.594-3.894z"></path>
</symbol>
<symbol id="icon-cycle" viewBox="0 0 20 20">
<title>cycle</title>
<path d="M5.516 14.224c-2.262-2.432-2.222-6.244 0.128-8.611 0.962-0.969 2.164-1.547 3.414-1.736l-0.069-2.077c-1.755 0.213-3.452 0.996-4.797 2.351-3.149 3.17-3.187 8.289-0.123 11.531l-1.741 1.752 5.51 0.301-0.015-5.834-2.307 2.323zM12.163 2.265l0.015 5.834 2.307-2.322c2.262 2.434 2.222 6.246-0.128 8.611-0.961 0.969-2.164 1.547-3.414 1.736l0.069 2.076c1.755-0.213 3.452-0.996 4.798-2.35 3.148-3.172 3.186-8.291 0.122-11.531l1.741-1.754-5.51-0.3z"></path>
</symbol>
<symbol id="icon-database" viewBox="0 0 20 20">
<title>database</title>
<path d="M16.726 12.641c-0.843 1.363-3.535 2.361-6.726 2.361s-5.883-0.998-6.727-2.361c-0.178-0.29-0.273-0.135-0.273 0.007 0 0.144 0 2.002 0 2.002 0 1.94 3.134 3.95 7 3.95s7-2.010 7-3.949c0 0 0-1.858 0-2.002s-0.096-0.298-0.274-0.008zM16.737 7.525c-0.83 1.205-3.532 2.090-6.737 2.090s-5.908-0.885-6.738-2.090c-0.171-0.248-0.262-0.113-0.262-0.002 0 0.113 0 2.357 0 2.357 0 1.762 3.134 3.189 7 3.189s7-1.428 7-3.189c0 0 0-2.244 0-2.357 0-0.111-0.092-0.246-0.263 0.002zM10 1c-3.866 0-7 1.18-7 2.633v1.26c0 1.541 3.134 2.791 7 2.791s7-1.25 7-2.791v-1.26c0-1.453-3.134-2.633-7-2.633z"></path>
</symbol>
<symbol id="icon-dial-pad" viewBox="0 0 20 20">
<title>dial-pad</title>
<path d="M6 0h-2c-0.552 0-1 0.448-1 1v2c0 0.552 0.448 1 1 1h2c0.552 0 1-0.448 1-1v-2c0-0.552-0.448-1-1-1zM11 0h-2c-0.552 0-1 0.448-1 1v2c0 0.552 0.448 1 1 1h2c0.552 0 1-0.448 1-1v-2c0-0.552-0.448-1-1-1zM16 0h-2c-0.552 0-1 0.448-1 1v2c0 0.552 0.448 1 1 1h2c0.552 0 1-0.448 1-1v-2c0-0.552-0.448-1-1-1zM6 5h-2c-0.552 0-1 0.448-1 1v2c0 0.552 0.448 1 1 1h2c0.552 0 1-0.448 1-1v-2c0-0.552-0.448-1-1-1zM11 5h-2c-0.552 0-1 0.448-1 1v2c0 0.552 0.448 1 1 1h2c0.552 0 1-0.448 1-1v-2c0-0.552-0.448-1-1-1zM16 5h-2c-0.552 0-1 0.448-1 1v2c0 0.552 0.448 1 1 1h2c0.552 0 1-0.448 1-1v-2c0-0.552-0.448-1-1-1zM6 10h-2c-0.552 0-1 0.448-1 1v2c0 0.552 0.448 1 1 1h2c0.552 0 1-0.448 1-1v-2c0-0.552-0.448-1-1-1zM11 10h-2c-0.552 0-1 0.448-1 1v2c0 0.552 0.448 1 1 1h2c0.552 0 1-0.448 1-1v-2c0-0.552-0.448-1-1-1zM11 16h-2c-0.552 0-1 0.448-1 1v2c0 0.552 0.448 1 1 1h2c0.552 0 1-0.448 1-1v-2c0-0.552-0.448-1-1-1zM16 10h-2c-0.552 0-1 0.448-1 1v2c0 0.552 0.448 1 1 1h2c0.552 0 1-0.448 1-1v-2c0-0.552-0.448-1-1-1z"></path>
</symbol>
<symbol id="icon-direction" viewBox="0 0 20 20">
<title>direction</title>
<path d="M18.060 1.941c-0.586-0.586-1.144-0.033-3.041 0.879-5.075 2.439-13.919 7.396-13.919 7.396l7.599 1.084 1.085 7.599c0 0 4.958-8.843 7.396-13.916 0.912-1.898 1.465-2.456 0.88-3.042zM16.236 3.896l-5.519 10.247-0.561-4.655 6.080-5.592z"></path>
</symbol>
<symbol id="icon-document" viewBox="0 0 20 20">
<title>document</title>
<path d="M16 1h-12c-0.553 0-1 0.447-1 1v16c0 0.552 0.447 1 1 1h12c0.553 0 1-0.448 1-1v-16c0-0.552-0.447-1-1-1zM15 17h-10v-14h10v14z"></path>
</symbol>
<symbol id="icon-documents" viewBox="0 0 20 20">
<title>documents</title>
<path d="M19.398 7.415l-7.444-1.996-1.303-4.861c-0.109-0.406-0.545-0.642-0.973-0.529l-9.076 2.432c-0.428 0.114-0.686 0.538-0.577 0.944l3.23 12.051c0.109 0.406 0.544 0.643 0.971 0.527l3.613-0.967-0.492 1.838c-0.109 0.406 0.149 0.83 0.577 0.943l8.11 2.174c0.428 0.115 0.862-0.121 0.972-0.529l2.97-11.084c0.108-0.406-0.15-0.83-0.578-0.943zM1.633 3.631l7.83-2.096 2.898 10.818-7.83 2.096-2.898-10.818zM15.678 18.463l-6.814-1.863 0.536-2.002 3.901-1.047c0.428-0.113 0.688-0.537 0.578-0.943l-1.508-5.627 5.947 1.631-2.64 9.851z"></path>
</symbol>
<symbol id="icon-drop" viewBox="0 0 20 20">
<title>drop</title>
<path d="M10.203 0.561c-0.027-0.215-0.38-0.215-0.406 0-0.883 7.107-5.398 8.572-5.398 13.512 0 3.053 2.564 5.527 5.601 5.527s5.6-2.475 5.6-5.527c0-4.94-4.514-6.405-5.397-13.512zM9.35 8.418c-0.059 0.219-0.123 0.444-0.189 0.678-0.401 1.424-0.856 3.039-0.856 4.906 0 1.012-0.598 1.371-1.156 1.371-0.639 0-1.156-0.523-1.156-1.166 0-2.207 1.062-3.649 2-4.92 0.295-0.398 0.572-0.775 0.797-1.15 0.103-0.172 0.38-0.164 0.506 0.006 0.059 0.080 0.079 0.182 0.054 0.275z"></path>
</symbol>
<symbol id="icon-edit" viewBox="0 0 20 20">
<title>edit</title>
<path d="M17.561 2.439c-1.442-1.443-2.525-1.227-2.525-1.227l-12.826 12.825-1.010 4.762 4.763-1.010 12.826-12.823c-0.001 0 0.216-1.083-1.228-2.527zM5.68 17.217l-1.624 0.35c-0.156-0.293-0.345-0.586-0.69-0.932s-0.639-0.533-0.932-0.691l0.35-1.623 0.47-0.469c0 0 0.883 0.018 1.881 1.016 0.997 0.996 1.016 1.881 1.016 1.881l-0.471 0.468z"></path>
</symbol>
<symbol id="icon-email" viewBox="0 0 20 20">
<title>email</title>
<path d="M14.608 12.172c0 0.84 0.239 1.175 0.864 1.175 1.393 0 2.28-1.775 2.28-4.727 0-4.512-3.288-6.672-7.393-6.672-4.223 0-8.064 2.832-8.064 8.184 0 5.112 3.36 7.896 8.52 7.896 1.752 0 2.928-0.192 4.727-0.792l0.386 1.607c-1.776 0.577-3.674 0.744-5.137 0.744-6.768 0-10.393-3.72-10.393-9.456 0-5.784 4.201-9.72 9.985-9.72 6.024 0 9.215 3.6 9.215 8.016 0 3.744-1.175 6.6-4.871 6.6-1.681 0-2.784-0.672-2.928-2.161-0.432 1.656-1.584 2.161-3.145 2.161-2.088 0-3.84-1.609-3.84-4.848 0-3.264 1.537-5.28 4.297-5.28 1.464 0 2.376 0.576 2.782 1.488l0.697-1.272h2.016v7.057h0.002zM11.657 9.004c0-1.319-0.985-1.872-1.801-1.872-0.888 0-1.871 0.719-1.871 2.832 0 1.68 0.744 2.616 1.871 2.616 0.792 0 1.801-0.504 1.801-1.896v-1.68z"></path>
</symbol>
<symbol id="icon-erase" viewBox="0 0 20 20">
<title>erase</title>
<path d="M18 3h-9.554c-0.44 0-1.071 0.236-1.402 0.525l-6.796 5.948c-0.331 0.289-0.331 0.764 0 1.053l6.796 5.947c0.331 0.289 0.962 0.527 1.402 0.527h9.554c1.1 0 2-0.9 2-2v-10c0-1.1-0.9-2-2-2zM15.191 14l-2.557-2.557-2.556 2.557-1.443-1.443 2.556-2.557-2.556-2.557 1.443-1.443 2.557 2.555 2.555-2.555 1.444 1.443-2.556 2.557 2.557 2.555-1.444 1.445z"></path>
</symbol>
<symbol id="icon-export" viewBox="0 0 20 20">
<title>export</title>
<path d="M15 15h-13v-9h2.595c0 0 0.689-0.896 2.17-2h-5.765c-0.553 0-1 0.449-1 1v11c0 0.553 0.447 1 1 1h15c0.553 0 1-0.447 1-1v-3.746l-2 1.645v1.101zM13.361 8.050v3.551l6.639-5.201-6.639-4.999v3.131c-8.061 0-8.061 7.968-8.061 7.968 2.282-3.748 3.686-4.45 8.061-4.45z"></path>
</symbol>
<symbol id="icon-eye" viewBox="0 0 20 20">
<title>eye</title>
<path d="M10 4.4c-6.561 0-10 4.832-10 5.6 0 0.766 3.439 5.6 10 5.6s10-4.834 10-5.6c0-0.768-3.44-5.6-10-5.6zM10 14.307c-2.455 0-4.445-1.928-4.445-4.307s1.99-4.309 4.445-4.309c2.455 0 4.444 1.93 4.444 4.309s-1.989 4.307-4.444 4.307zM10 10c-0.407-0.447 0.663-2.154 0-2.154-1.228 0-2.223 0.965-2.223 2.154s0.995 2.154 2.223 2.154c1.227 0 2.223-0.965 2.223-2.154 0-0.547-1.877 0.379-2.223 0z"></path>
</symbol>
<symbol id="icon-flag" viewBox="0 0 20 20">
<title>flag</title>
<path d="M18.926 5.584c-9.339 13.568-6.142-0.26-14.037 6.357l1.795 7.059h-2.019l-3.665-14.41 1.85-0.664c8.849-6.471 4.228 5.82 15.637 1.254 0.364-0.147 0.655 0.090 0.439 0.404z"></path>
</symbol>
<symbol id="icon-flash" viewBox="0 0 20 20">
<title>flash</title>
<path d="M6.803 18.998c-0.194-0.127 3.153-7.16 3.038-7.469s-3.665-1.436-3.838-1.979c-0.174-0.543 7.007-8.707 7.196-8.549s-3.129 7.238-3.039 7.469c0.091 0.23 3.728 1.404 3.838 1.979s-7.002 8.676-7.195 8.549z"></path>
</symbol>
<symbol id="icon-folder-music" viewBox="0 0 20 20">
<title>folder-music</title>
<path d="M18.405 2.799c-0.112-0.44-0.656-0.799-1.21-0.799h-14.39c-0.555 0-1.099 0.359-1.21 0.799l-0.201 1.201h17.211l-0.2-1.201zM19.412 5h-18.825c-0.342 0-0.609 0.294-0.577 0.635l0.923 11.669c0.038 0.394 0.37 0.696 0.766 0.696h16.601c0.397 0 0.728-0.302 0.766-0.696l0.923-11.669c0.033-0.341-0.235-0.635-0.577-0.635zM11.942 12.521c-0.128 0.265-0.258 0.279-0.202 0 0.146-0.721 0.047-2.269-1.043-2.441v3.294c0 0.674-0.311 1.262-1.136 1.528-0.802 0.256-1.699-0.011-1.908-0.586s0.261-1.276 1.052-1.564c0.442-0.161 0.954-0.203 1.299-0.070v-4.682h0.694c-0.001 1.633 2.818 1.275 1.244 4.521z"></path>
</symbol>
<symbol id="icon-folder-video" viewBox="0 0 20 20">
<title>folder-video</title>
<path d="M18.405 2.799c-0.112-0.44-0.656-0.799-1.21-0.799h-14.39c-0.555 0-1.099 0.359-1.21 0.799l-0.201 1.201h17.211l-0.2-1.201zM19.412 5h-18.825c-0.342 0-0.609 0.294-0.577 0.635l0.923 11.669c0.038 0.394 0.37 0.696 0.766 0.696h16.601c0.397 0 0.728-0.302 0.766-0.696l0.923-11.669c0.033-0.341-0.235-0.635-0.577-0.635zM8 14v-5l4.383 2.5-4.383 2.5z"></path>
</symbol>
<symbol id="icon-folder" viewBox="0 0 20 20">
<title>folder</title>
<path d="M18.405 4.799c-0.111-0.44-0.655-0.799-1.21-0.799h-6.814c-0.554 0-1.33-0.318-1.722-0.707l-0.596-0.588c-0.392-0.389-1.167-0.705-1.721-0.705h-3.255c-0.555 0-1.059 0.447-1.12 0.994l-0.292 3.006h16.931l-0.201-1.201zM19.412 7h-18.824c-0.342 0-0.61 0.294-0.577 0.635l0.923 9.669c0.037 0.394 0.369 0.696 0.766 0.696h16.6c0.397 0 0.728-0.302 0.766-0.696l0.923-9.669c0.033-0.341-0.235-0.635-0.577-0.635z"></path>
</symbol>
<symbol id="icon-forward" viewBox="0 0 20 20">
<title>forward</title>
<path d="M12 11.874v4.357l7-6.69-7-6.572v3.983c-8.775 0-11 9.732-11 9.732 2.484-4.388 6.237-4.81 11-4.81z"></path>
</symbol>
<symbol id="icon-gauge" viewBox="0 0 20 20">
<title>gauge</title>
<path d="M8.127 13.6c-0.689 1.197-0.225 2.18 0.732 2.732 0.956 0.553 2.041 0.465 2.732-0.732 0.689-1.195 5.047-11.865 4.668-12.084s-7.442 8.888-8.132 10.084zM10 6c0.438 0 0.864 0.037 1.281 0.109 0.438-0.549 0.928-1.154 1.405-1.728-0.852-0.246-1.752-0.381-2.686-0.381-5.607 0-10 4.729-10 10.766 0 0.371 0.016 0.742 0.049 1.103 0.049 0.551 0.54 0.955 1.084 0.908 0.551-0.051 0.957-0.535 0.908-1.086-0.027-0.302-0.041-0.615-0.041-0.925 0-4.916 3.514-8.766 8-8.766zM17.219 7.25c-0.279 0.75-0.574 1.514-0.834 2.174 1.015 1.47 1.615 3.314 1.615 5.342 0 0.316-0.015 0.635-0.043 0.943-0.050 0.551 0.355 1.037 0.905 1.088 0.030 0.002 0.061 0.004 0.092 0.004 0.511 0 0.948-0.391 0.995-0.91 0.033-0.37 0.051-0.748 0.051-1.125 0-2.954-1.053-5.59-2.781-7.516z"></path>
</symbol>
<symbol id="icon-globe" viewBox="0 0 20 20">
<title>globe</title>
<path d="M10 0.4c-5.295 0-9.601 4.307-9.601 9.6s4.306 9.6 9.601 9.6c5.293 0 9.6-4.307 9.6-9.6s-4.307-9.6-9.6-9.6zM18.188 10c0 1.873-0.636 3.6-1.696 4.98-0.3-0.234-0.619-0.867-0.319-1.523 0.303-0.66 0.382-2.188 0.312-2.783-0.066-0.594-0.375-2.025-1.214-2.039-0.838-0.012-1.413-0.289-1.911-1.283-1.033-2.068 1.939-2.465 0.906-3.609-0.289-0.322-1.783 1.322-2.002-0.869-0.014-0.157 0.135-0.392 0.336-0.636 3.244 1.090 5.588 4.157 5.588 7.762zM8.875 1.893c-0.196 0.382-0.713 0.537-1.027 0.824-0.684 0.619-0.978 0.533-1.346 1.127-0.371 0.594-1.567 1.449-1.567 1.879s0.604 0.936 0.906 0.838c0.302-0.1 1.099-0.094 1.567 0.070 0.469 0.166 3.914 0.332 2.816 3.244-0.348 0.926-1.873 0.77-2.279 2.303-0.061 0.225-0.272 1.186-0.285 1.5-0.025 0.486 0.344 2.318-0.125 2.318-0.471 0-1.738-1.639-1.738-1.936s-0.328-1.338-0.328-2.23c0-0.891-1.518-0.877-1.518-2.062 0-1.068 0.823-1.6 0.638-2.113-0.181-0.51-1.627-0.527-2.23-0.59 1.053-2.731 3.53-4.758 6.516-5.172zM7.424 17.77c0.492-0.26 0.542-0.596 0.988-0.613 0.51-0.023 0.925-0.199 1.5-0.326 0.51-0.111 1.423-0.629 2.226-0.695 0.678-0.055 2.015 0.035 2.375 0.689-1.295 0.861-2.848 1.363-4.514 1.363-0.899 0-1.765-0.149-2.575-0.418z"></path>
</symbol>
<symbol id="icon-grid" viewBox="0 0 20 20">
<title>grid</title>
<path d="M8 4h-3c-0.553 0-1 0.447-1 1v3c0 0.552 0.447 1 1 1h3c0.553 0 1-0.448 1-1v-3c0-0.552-0.447-1-1-1zM15 4h-3c-0.553 0-1 0.447-1 1v3c0 0.552 0.447 1 1 1h3c0.553 0 1-0.448 1-1v-3c0-0.552-0.447-1-1-1zM8 11h-3c-0.553 0-1 0.447-1 1v3c0 0.552 0.447 1 1 1h3c0.553 0 1-0.448 1-1v-3c0-0.552-0.447-1-1-1zM15 11h-3c-0.553 0-1 0.447-1 1v3c0 0.552 0.447 1 1 1h3c0.553 0 1-0.448 1-1v-3c0-0.552-0.447-1-1-1z"></path>
</symbol>
<symbol id="icon-heart-outlined" viewBox="0 0 20 20">
<title>heart-outlined</title>
<path d="M17.19 4.156c-1.672-1.535-4.383-1.535-6.055 0l-1.135 1.041-1.136-1.041c-1.672-1.535-4.382-1.535-6.054 0-1.881 1.726-1.881 4.519 0 6.245l7.19 6.599 7.19-6.599c1.88-1.726 1.88-4.52 0-6.245zM16.124 9.375l-6.124 5.715-6.125-5.715c-0.617-0.567-0.856-1.307-0.856-2.094s0.138-1.433 0.756-1.999c0.545-0.501 1.278-0.777 2.063-0.777s1.517 0.476 2.062 0.978l2.1 1.825 2.099-1.826c0.546-0.502 1.278-0.978 2.063-0.978s1.518 0.276 2.063 0.777c0.618 0.566 0.755 1.212 0.755 1.999s-0.238 1.528-0.856 2.095z"></path>
</symbol>
<symbol id="icon-heart" viewBox="0 0 20 20">
<title>heart</title>
<path d="M17.19 4.155c-1.672-1.534-4.383-1.534-6.055 0l-1.135 1.042-1.136-1.042c-1.672-1.534-4.382-1.534-6.054 0-1.881 1.727-1.881 4.52 0 6.246l7.19 6.599 7.19-6.599c1.88-1.726 1.88-4.52 0-6.246z"></path>
</symbol>
<symbol id="icon-home" viewBox="0 0 20 20">
<title>home</title>
<path d="M18.672 11h-1.672v6c0 0.445-0.194 1-1 1h-4v-6h-4v6h-4c-0.806 0-1-0.555-1-1v-6h-1.672c-0.598 0-0.47-0.324-0.060-0.748l8.024-8.032c0.195-0.202 0.451-0.302 0.708-0.312 0.257 0.010 0.513 0.109 0.708 0.312l8.023 8.031c0.411 0.425 0.539 0.749-0.059 0.749z"></path>
</symbol>
<symbol id="icon-info-with-circle" viewBox="0 0 20 20">
<title>info-with-circle</title>
<path d="M10 0.4c-5.303 0-9.601 4.298-9.601 9.6 0 5.303 4.298 9.601 9.601 9.601 5.301 0 9.6-4.298 9.6-9.601s-4.299-9.6-9.6-9.6zM10.896 3.866c0.936 0 1.211 0.543 1.211 1.164 0 0.775-0.62 1.492-1.679 1.492-0.886 0-1.308-0.445-1.282-1.182 0-0.621 0.519-1.474 1.75-1.474zM8.498 15.75c-0.64 0-1.107-0.389-0.66-2.094l0.733-3.025c0.127-0.484 0.148-0.678 0-0.678-0.191 0-1.022 0.334-1.512 0.664l-0.319-0.523c1.555-1.299 3.343-2.061 4.108-2.061 0.64 0 0.746 0.756 0.427 1.92l-0.84 3.18c-0.149 0.562-0.085 0.756 0.064 0.756 0.192 0 0.82-0.232 1.438-0.719l0.362 0.486c-1.513 1.512-3.162 2.094-3.801 2.094z"></path>
</symbol>
<symbol id="icon-key" viewBox="0 0 20 20">
<title>key</title>
<path d="M17.691 4.725c-0.503-2.977-3.22-4.967-6.069-4.441s-5.256 2.816-4.753 5.795c0.107 0.641 0.408 1.644 0.763 2.365l-5.175 7.723c-0.191 0.285-0.299 0.799-0.242 1.141l0.333 1.971c0.058 0.342 0.372 0.572 0.7 0.514l1.516-0.281c0.328-0.059 0.744-0.348 0.924-0.639l2.047-3.311 0.018-0.022 1.386-0.256 2.39-3.879c0.785 0.139 1.912 0.092 2.578-0.031 2.848-0.526 4.087-3.67 3.584-6.649zM15.166 6.252c-0.784 1.17-1.584 0.346-2.703-0.475-1.119-0.818-2.135-1.322-1.352-2.492s2.326-1.455 3.447-0.635c1.12 0.819 1.391 2.432 0.608 3.602z"></path>
</symbol>
<symbol id="icon-keyboard" viewBox="0 0 20 20">
<title>keyboard</title>
<path d="M18.6 4h-17.2c-0.771 0-1.4 0.629-1.4 1.4v9.2c0 0.769 0.629 1.4 1.399 1.4h17.2c0.77 0 1.4-0.631 1.4-1.4v-9.2c0.001-0.771-0.63-1.4-1.399-1.4zM11 6h2v2h-2v-2zM14 9v2h-2v-2h2zM8 6h2v2h-2v-2zM11 9v2h-2v-2h2zM5 6h2v2h-2v-2zM8 9v2h-2v-2h2zM2 6h2v2h-2v-2zM5 9v2h-2v-2h2zM4 14h-2v-2h2v2zM15 14h-10v-2h10v2zM18 14h-2v-2h2v2zM15 11v-2h2v2h-2zM18 8h-4v-2h4v2z"></path>
</symbol>
<symbol id="icon-landline" viewBox="0 0 20 20">
<title>landline</title>
<path d="M4.902 0.25c-1.404-0.277-2.787 0.625-3.069 2.023-1.105 5.455-1.105 9.997 0 15.454 0.247 1.225 1.337 2.073 2.555 2.073 0.17 0 0.342-0.016 0.515-0.050 1.412-0.279 2.329-1.638 2.046-3.036-0.978-4.832-0.978-8.598 0-13.43 0.282-1.396-0.635-2.755-2.047-3.034zM17 2h-8.564c0.073 0.467 0.081 0.951-0.017 1.44-0.936 4.72-0.936 8.398 0 13.12 0.098 0.49 0.090 0.973 0.017 1.44h8.564c1.1 0 2-0.9 2-2v-12c0-1.1-0.899-2-2-2zM12 14.5c-0.828 0-1.5-0.672-1.5-1.5s0.672-1.5 1.5-1.5 1.5 0.672 1.5 1.5-0.672 1.5-1.5 1.5zM17 9h-7v-4h7v4z"></path>
</symbol>
<symbol id="icon-laptop" viewBox="0 0 20 20">
<title>laptop</title>
<path d="M19.754 15.631c-0.247-0.371-1.754-2.631-1.754-2.631v-9c0-1.102-0.9-2-2-2h-12c-1.101 0-2 0.898-2 2v9c0 0-1.507 2.26-1.754 2.631-0.246 0.369-0.246 0.582-0.246 0.869v0.5c0 0.5 0.5 1 0.999 1h18.002c0.499 0 0.999-0.5 0.999-1v-0.5c0-0.287 0-0.5-0.246-0.869zM7 16l0.6-1h4.8l0.6 1h-6zM16 12h-12v-8h12v8z"></path>
</symbol>
<symbol id="icon-light-bulb" viewBox="0 0 20 20">
<title>light-bulb</title>
<path d="M7.186 19.172c0.789 0.51 1.701 0.855 2.814 0.828 1.111 0.027 2.025-0.318 2.814-0.828l-0.017-2.172h-5.594l-0.017 2.172zM12.697 16c0-4.357 4.63-5.848 4.283-10.188-0.218-2.738-2.073-5.81-6.98-5.81s-6.762 3.072-6.981 5.811c-0.347 4.339 4.284 5.83 4.284 10.187h5.394zM5 6c0.207-2.598 2.113-4 5-4s4.654 1.371 4.861 3.969c0.113 1.424-0.705 2.373-1.809 3.926-0.814 1.146-1.603 2.343-2.052 4.105h-2c-0.449-1.762-1.238-2.959-2.053-4.106-1.103-1.552-2.061-2.47-1.947-3.894z"></path>
</symbol>
<symbol id="icon-list" viewBox="0 0 20 20">
<title>list</title>
<path d="M14.4 9h-5.8c-0.552 0-0.6 0.447-0.6 1s0.048 1 0.6 1h5.8c0.552 0 0.6-0.447 0.6-1s-0.048-1-0.6-1zM16.4 14h-7.8c-0.552 0-0.6 0.447-0.6 1s0.048 1 0.6 1h7.8c0.552 0 0.6-0.447 0.6-1s-0.048-1-0.6-1zM8.6 6h7.8c0.552 0 0.6-0.447 0.6-1s-0.048-1-0.6-1h-7.8c-0.552 0-0.6 0.447-0.6 1s0.048 1 0.6 1zM5.4 9h-1.8c-0.552 0-0.6 0.447-0.6 1s0.048 1 0.6 1h1.8c0.552 0 0.6-0.447 0.6-1s-0.048-1-0.6-1zM5.4 14h-1.8c-0.552 0-0.6 0.447-0.6 1s0.048 1 0.6 1h1.8c0.552 0 0.6-0.447 0.6-1s-0.048-1-0.6-1zM5.4 4h-1.8c-0.552 0-0.6 0.447-0.6 1s0.048 1 0.6 1h1.8c0.552 0 0.6-0.447 0.6-1s-0.048-1-0.6-1z"></path>
</symbol>
<symbol id="icon-location-pin" viewBox="0 0 20 20">
<title>location-pin</title>
<path d="M10 2.009c-2.762 0-5 2.229-5 4.99 0 4.774 5 11 5 11s5-6.227 5-11c0-2.76-2.238-4.99-5-4.99zM10 9.76c-1.492 0-2.7-1.209-2.7-2.7s1.208-2.7 2.7-2.7c1.49 0 2.699 1.209 2.699 2.7s-1.209 2.7-2.699 2.7z"></path>
</symbol>
<symbol id="icon-location" viewBox="0 0 20 20">
<title>location</title>
<path d="M19.367 18.102l-1.367-4.102h-1.5l0.833 4h-14.666l0.833-4h-1.5l-1.368 4.102c-0.347 1.044 0.268 1.898 1.368 1.898h16c1.1 0 1.715-0.854 1.367-1.898zM15 5c0-2.761-2.238-5-5-5s-5 2.239-5 5c0 4.775 5 10 5 10s5-5.225 5-10zM7.3 5.060c0-1.491 1.208-2.699 2.7-2.699s2.7 1.208 2.7 2.699c0 1.492-1.209 2.7-2.7 2.7s-2.7-1.209-2.7-2.7z"></path>
</symbol>
<symbol id="icon-lock-open" viewBox="0 0 20 20">
<title>lock-open</title>
<path d="M15.8 8h-1.8v-2.4c0-2.897-1.335-4.6-4-4.6s-4 1.703-4 4.6v0.4h2v-0.801c0-1.445 0.797-2.199 2-2.199s2 0.754 2 2.199v2.801h-8c-0.553 0-1 0.646-1 1.199v7.801c0 0.549 0.428 1.139 0.951 1.307l1.197 0.387c0.524 0.167 1.402 0.306 1.952 0.306h5.8c0.549 0 1.428-0.139 1.951-0.307l1.196-0.387c0.524-0.167 0.953-0.757 0.953-1.306v-7.801c0-0.553-0.648-1.199-1.2-1.199z"></path>
</symbol>
<symbol id="icon-lock" viewBox="0 0 20 20">
<title>lock</title>
<path d="M15.8 8h-1.8v-2.4c0-2.897-1.335-4.6-4-4.6s-4 1.703-4 4.6v2.4h-2c-0.553 0-1 0.646-1 1.199v7.801c0 0.549 0.428 1.139 0.951 1.307l1.197 0.387c0.524 0.167 1.402 0.306 1.952 0.306h5.8c0.549 0 1.428-0.139 1.951-0.307l1.196-0.387c0.524-0.167 0.953-0.757 0.953-1.306v-7.801c0-0.553-0.648-1.199-1.2-1.199zM12 8h-4v-2.801c0-1.445 0.797-2.199 2-2.199s2 0.754 2 2.199v2.801z"></path>
</symbol>
<symbol id="icon-magnifying-glass" viewBox="0 0 20 20">
<title>magnifying-glass</title>
<path d="M17.545 15.467l-3.779-3.779c0.57-0.935 0.898-2.035 0.898-3.21 0-3.417-2.961-6.377-6.378-6.377s-6.186 2.769-6.186 6.186c0 3.416 2.961 6.377 6.377 6.377 1.137 0 2.2-0.309 3.115-0.844l3.799 3.801c0.372 0.371 0.975 0.371 1.346 0l0.943-0.943c0.371-0.371 0.236-0.84-0.135-1.211zM4.004 8.287c0-2.366 1.917-4.283 4.282-4.283s4.474 2.107 4.474 4.474c0 2.365-1.918 4.283-4.283 4.283s-4.473-2.109-4.473-4.474z"></path>
</symbol>
<symbol id="icon-mail" viewBox="0 0 20 20">
<title>mail</title>
<path d="M1.574 5.286c0.488 0.262 7.248 3.894 7.5 4.029s0.578 0.199 0.906 0.199c0.328 0 0.654-0.064 0.906-0.199s7.012-3.767 7.5-4.029c0.489-0.263 0.951-1.286 0.054-1.286h-16.919c-0.897 0-0.435 1.023 0.053 1.286zM18.613 7.489c-0.555 0.289-7.387 3.849-7.727 4.027s-0.578 0.199-0.906 0.199-0.566-0.021-0.906-0.199-7.133-3.739-7.688-4.028c-0.39-0.204-0.386 0.035-0.386 0.219s0 7.293 0 7.293c0 0.42 0.566 1 1 1h16c0.434 0 1-0.58 1-1 0 0 0-7.108 0-7.292s0.004-0.423-0.387-0.219z"></path>
</symbol>
<symbol id="icon-map" viewBox="0 0 20 20">
<title>map</title>
<path d="M19.447 3.718l-6-3c-0.281-0.141-0.613-0.141-0.895 0l-5.63 2.815-5.606-1.869c-0.306-0.102-0.64-0.051-0.901 0.138s-0.415 0.49-0.415 0.811v13.001c0 0.379 0.214 0.725 0.553 0.894l6 3c0.141 0.070 0.294 0.106 0.447 0.106s0.307-0.035 0.447-0.106l5.63-2.814 5.606 1.869c0.305 0.1 0.64 0.049 0.901-0.139s0.415-0.49 0.415-0.81v-13.002c0.001-0.379-0.213-0.725-0.552-0.894zM8 5.231l4-2v11.763l-4 2v-11.763zM2 4l4 1.333v11.661l-4-2v-10.994zM18 16.227l-4-1.334v-11.662l4 2v10.996z"></path>
</symbol>
<symbol id="icon-megaphone" viewBox="0 0 20 20">
<title>megaphone</title>
<path d="M17.223 7.030c-1.584-3.686-4.132-6.49-5.421-5.967-2.189 0.891 1.304 5.164-9.447 9.533-0.929 0.379-1.164 1.888-0.775 2.792 0.388 0.902 1.658 1.801 2.587 1.424 0.161-0.066 0.751-0.256 0.751-0.256 0.663 0.891 1.357 0.363 1.604 0.928 0.296 0.68 0.939 2.158 1.158 2.66s0.715 0.967 1.075 0.83c0.359-0.137 1.582-0.602 2.050-0.779s0.579-0.596 0.436-0.924c-0.154-0.355-0.786-0.459-0.967-0.873-0.18-0.412-0.769-1.738-0.938-2.156-0.23-0.568 0.259-1.031 0.97-1.104 4.894-0.512 5.809 2.512 7.475 1.834 1.287-0.525 1.025-4.259-0.558-7.942zM16.672 13.006c-0.287 0.115-2.213-1.402-3.443-4.267-1.231-2.863-1.076-5.48-0.79-5.597 0.286-0.115 2.165 1.717 3.395 4.58s1.124 5.167 0.838 5.284z"></path>
</symbol>
<symbol id="icon-menu" viewBox="0 0 20 20">
<title>menu</title>
<path d="M16.4 9h-12.8c-0.552 0-0.6 0.447-0.6 1s0.048 1 0.6 1h12.8c0.552 0 0.6-0.447 0.6-1s-0.048-1-0.6-1zM16.4 13h-12.8c-0.552 0-0.6 0.447-0.6 1s0.048 1 0.6 1h12.8c0.552 0 0.6-0.447 0.6-1s-0.048-1-0.6-1zM3.6 7h12.8c0.552 0 0.6-0.447 0.6-1s-0.048-1-0.6-1h-12.8c-0.552 0-0.6 0.447-0.6 1s0.048 1 0.6 1z"></path>
</symbol>
<symbol id="icon-message" viewBox="0 0 20 20">
<title>message</title>
<path d="M18 6v7c0 1.1-0.9 2-2 2h-4v3l-4-3h-4c-1.101 0-2-0.9-2-2v-7c0-1.1 0.899-2 2-2h12c1.1 0 2 0.9 2 2z"></path>
</symbol>
<symbol id="icon-mic" viewBox="0 0 20 20">
<title>mic</title>
<path d="M16.399 7.643v2.757c0 2.236-1.643 4.629-5.399 4.959v2.641h2.6c0.22 0 0.4 0.18 0.4 0.4v1.2c0 0.221-0.181 0.4-0.4 0.4h-7.2c-0.22 0-0.4-0.18-0.4-0.4v-1.2c0-0.22 0.18-0.4 0.399-0.4h2.601v-2.641c-3.758-0.33-5.4-2.723-5.4-4.959v-2.757c0-0.221 0.18-0.4 0.4-0.4h0.6c0.22 0 0.4 0.18 0.4 0.4v2.757c0 1.336 1.053 3.6 5 3.6s5-2.264 5-3.6v-2.757c0-0.221 0.18-0.4 0.399-0.4h0.601c0.22-0.001 0.399 0.179 0.399 0.4zM10 12c2.346 0 3-0.965 3-1.6v-3.158h-6v3.158c0 0.635 0.652 1.6 3 1.6zM13 1.6c0-0.637-0.654-1.6-3-1.6-2.348 0-3 0.963-3 1.6v4.242h6v-4.242z"></path>
</symbol>
<symbol id="icon-minus" viewBox="0 0 20 20">
<title>minus</title>
<path d="M16 10c0 0.553-0.048 1-0.601 1h-10.798c-0.552 0-0.601-0.447-0.601-1s0.049-1 0.601-1h10.799c0.552 0 0.6 0.447 0.6 1z"></path>
</symbol>
<symbol id="icon-mobile" viewBox="0 0 20 20">
<title>mobile</title>
<path d="M14.004 0h-8.008c-1.102 0-1.996 0.894-1.996 1.996v16.007c0 1.103 0.894 1.997 1.996 1.997h8.007c1.103 0 1.997-0.894 1.997-1.996v-16.008c0-1.102-0.894-1.996-1.996-1.996zM10 19c-0.69 0-1.25-0.447-1.25-1s0.56-1 1.25-1 1.25 0.447 1.25 1-0.56 1-1.25 1zM14 16h-8v-14h8v14z"></path>
</symbol>
<symbol id="icon-modern-mic" viewBox="0 0 20 20">
<title>modern-mic</title>
<path d="M1.228 10.891c-0.221 0.148-0.292 0.46-0.159 0.69l1.296 2.244c0.133 0.23 0.438 0.325 0.677 0.208l3.958-1.917v6.884h2v-7.854l4.071-1.973-2.62-4.54-9.223 6.258zM18.457 3.037c-1.121-1.94-3.604-2.605-5.546-1.484-0.91 0.525-1.508 1.359-1.801 2.289l2.976 5.156c0.951 0.212 1.973 0.11 2.885-0.415 1.942-1.121 2.607-3.603 1.486-5.546z"></path>
</symbol>
<symbol id="icon-music" viewBox="0 0 20 20">
<title>music</title>
<path d="M16 1h-12c-0.553 0-1 0.447-1 1v16c0 0.552 0.447 1 1 1h12c0.553 0 1-0.448 1-1v-16c0-0.552-0.447-1-1-1zM12.795 11.519c-0.185 0.382-0.373 0.402-0.291 0 0.211-1.039 0.068-3.271-1.504-3.519v4.75c0 0.973-0.448 1.82-1.639 2.203-1.156 0.369-2.449-0.016-2.752-0.846s0.377-1.84 1.518-2.256c0.637-0.232 1.375-0.292 1.873-0.101v-6.75h1c0 2.355 4.065 1.839 1.795 6.519z"></path>
</symbol>
<symbol id="icon-network" viewBox="0 0 20 20">
<title>network</title>
<path d="M5.274 6.915c0.2 0 0.394 0.029 0.576 0.086 0.69-0.773 1.455-1.477 2.283-2.1-0.035-0.146-0.054-0.299-0.054-0.455 0-0.217 0.036-0.426 0.102-0.621-0.929-0.664-1.937-1.223-3.011-1.654-1.005 0.621-1.882 1.431-2.582 2.381 0.519 0.92 1.136 1.777 1.838 2.557 0.256-0.124 0.543-0.194 0.848-0.194zM3.316 8.872c0-0.275 0.058-0.537 0.159-0.773-0.628-0.692-1.197-1.436-1.695-2.229-0.625 1.242-0.98 2.645-0.98 4.131 0 1.719 0.474 3.328 1.295 4.705 0.294-1.654 0.851-3.219 1.62-4.652-0.25-0.328-0.399-0.739-0.399-1.182zM10.036 2.489c0.517 0 0.985 0.201 1.336 0.529 1.021-0.439 2.096-0.777 3.215-0.992-1.351-0.779-2.917-1.226-4.587-1.226-1.139 0-2.229 0.209-3.236 0.588 0.799 0.395 1.561 0.855 2.277 1.375 0.292-0.174 0.631-0.274 0.995-0.274zM12.962 11.708c0.122-0.254 0.295-0.479 0.509-0.656-0.578-1.777-1.493-3.404-2.672-4.803-0.234 0.1-0.492 0.154-0.764 0.154-0.425 0-0.816-0.137-1.137-0.365-0.71 0.539-1.367 1.143-1.964 1.803 0.188 0.299 0.297 0.652 0.297 1.031 0 0.203-0.031 0.4-0.090 0.586 1.717 1.146 3.694 1.934 5.821 2.25zM15.501 14.351c0.026 0.371 0.041 0.744 0.041 1.121 0 0.664-0.042 1.318-0.122 1.961 1.56-1.139 2.748-2.758 3.347-4.639-0.71 0.172-1.438 0.295-2.181 0.365-0.173 0.537-0.572 0.969-1.085 1.192zM12.504 13.024c-2.272-0.377-4.377-1.244-6.21-2.484-0.298 0.182-0.647 0.289-1.021 0.289-0.139 0-0.272-0.014-0.402-0.041-0.877 1.662-1.438 3.517-1.599 5.484 0.876 0.94 1.944 1.697 3.145 2.205 1.492-2.293 3.576-4.189 6.087-5.453zM16.176 3.181c-1.475 0.143-2.883 0.514-4.193 1.068 0.006 0.066 0.010 0.131 0.010 0.197 0 0.309-0.074 0.6-0.201 0.859 1.311 1.539 2.327 3.33 2.969 5.291 0.797 0.016 1.477 0.502 1.77 1.195 0.886-0.090 1.748-0.26 2.578-0.504 0.060-0.42 0.092-0.85 0.092-1.287-0.001-2.704-1.167-5.136-3.025-6.819zM13.489 14.069c-2.344 1.098-4.304 2.789-5.723 4.856 0.715 0.179 1.463 0.275 2.234 0.275 1.387 0 2.702-0.309 3.882-0.859 0.19-0.928 0.29-1.887 0.29-2.869 0-0.355-0.016-0.707-0.043-1.055-0.236-0.076-0.453-0.193-0.64-0.348z"></path>
</symbol>
<symbol id="icon-new-message" viewBox="0 0 20 20">
<title>new-message</title>
<path d="M18.174 1.826c-1.102-1.102-2.082-0.777-2.082-0.777l-8.639 8.632-1.453 4.319 4.317-1.454 8.634-8.638c0 0 0.324-0.98-0.777-2.082zM10.605 11.605l-0.471 0.47-1.473 0.5c-0.104-0.24-0.234-0.477-0.498-0.74s-0.5-0.394-0.74-0.498l0.5-1.473 0.471-0.47c0 0 0.776-0.089 1.537 0.673 0.762 0.761 0.674 1.538 0.674 1.538zM16 17h-13v-13h5l2-2h-7c-1.1 0-2 0.9-2 2v13c0 1.1 0.9 2 2 2h13c1.1 0 2-0.9 2-2v-7l-2 2v5z"></path>
</symbol>
<symbol id="icon-new" viewBox="0 0 20 20">
<title>new</title>
<path d="M18.69 12.344l-1.727-1.538c-0.5-0.445-0.5-1.174 0-1.619l1.727-1.539c0.5-0.445 0.367-0.859-0.296-0.924l-2.29-0.217c-0.662-0.062-1.020-0.633-0.791-1.266l1.215-3.383c0.228-0.635-0.051-0.865-0.619-0.514l-2.701 1.67c-0.568 0.354-1.303 0.16-1.631-0.426l-0.978-1.746c-0.329-0.588-0.872-0.59-1.207-0.008l-0.909 1.58c-0.337 0.585-1.108 0.833-1.713 0.556l-1.6-0.734c-0.608-0.28-1.073 0.042-1.037 0.716l0.086 1.615c0.037 0.674-0.461 1.367-1.104 1.541l-1.545 0.414c-0.642 0.174-0.76 0.68-0.26 1.125l1.727 1.539c0.5 0.445 0.5 1.174 0 1.619l-1.727 1.539c-0.5 0.445-0.368 0.877 0.293 0.957l2.095 0.254c0.661 0.080 1.029 0.67 0.818 1.311l-1.074 3.258c-0.211 0.641 0.090 0.889 0.668 0.555l2.463-1.426c0.578-0.334 1.356-0.15 1.729 0.408l1.022 1.539c0.372 0.559 0.931 0.529 1.24-0.068l0.899-1.733c0.31-0.598 1.052-0.842 1.648-0.543l1.734 0.867c0.598 0.297 1.057-0.010 1.021-0.682l-0.087-1.617c-0.035-0.674 0.461-1.365 1.106-1.539l1.543-0.416c0.644-0.174 0.762-0.68 0.262-1.125zM11 14h-2v-2h2v2zM11 11h-2v-5h2v5z"></path>
</symbol>
<symbol id="icon-news" viewBox="0 0 20 20">
<title>news</title>
<path d="M14 5h-4v2h4v-2zM14 8h-4v1h4v-1zM9 5h-3v4h3v-4zM9 11h5v-1h-5v1zM12 13h2v-1h-2v1zM14 14h-8v1h8v-1zM11 12h-5v1h5v-1zM8 10h-2v1h2v-1zM17 1h-14c-0.553 0-1 0.447-1 1v16c0 0.552 0.447 1 1 1h14c0.553 0 1-0.448 1-1v-16c0-0.552-0.447-1-1-1zM16 17h-12v-14h12v14z"></path>
</symbol>
<symbol id="icon-note" viewBox="0 0 20 20">
<title>note</title>
<path d="M14.971 9.438c-0.422 0.656-0.646 0.375-0.52 0 0.336-0.993 0.348-4.528-2.451-4.969l-0.002 11.531c0 1.657-1.735 4-4.998 4-1.657 0-3-0.871-3-2.5 0-2.119 1.927-3.4 4-3.4 1.328 0 2 0.4 2 0.4v-14.5h2c0 2.676 5.986 4.744 2.971 9.438z"></path>
</symbol>
<symbol id="icon-old-mobile" viewBox="0 0 20 20">
<title>old-mobile</title>
<path d="M13.6 3h-6.6v-3h-2v18.6c0 0.77 0.629 1.4 1.398 1.4h7.202c0.769 0 1.4-0.631 1.4-1.4v-14.199c0-0.772-0.631-1.401-1.4-1.401zM8 15c-0.691 0-1.25-0.447-1.25-1s0.559-1 1.25-1 1.25 0.447 1.25 1-0.559 1-1.25 1zM9.25 17c0 0.553-0.559 1-1.25 1s-1.25-0.447-1.25-1 0.559-1 1.25-1 1.25 0.447 1.25 1zM7 11v-6h6v6h-6zM12 15c-0.691 0-1.25-0.447-1.25-1s0.559-1 1.25-1 1.25 0.447 1.25 1-0.559 1-1.25 1zM13.25 17c0 0.553-0.559 1-1.25 1s-1.25-0.447-1.25-1 0.559-1 1.25-1 1.25 0.447 1.25 1z"></path>
</symbol>
<symbol id="icon-old-phone" viewBox="0 0 20 20">
<title>old-phone</title>
<path d="M17.256 12.253c-0.096-0.667-0.611-1.187-1.274-1.342-2.577-0.604-3.223-2.088-3.332-3.734-0.457-0.085-1.27-0.177-2.65-0.177s-2.193 0.092-2.65 0.177c-0.109 1.646-0.755 3.13-3.332 3.734-0.663 0.156-1.178 0.675-1.274 1.342l-0.497 3.442c-0.175 1.212 0.715 2.305 1.953 2.305h11.6c1.237 0 2.128-1.093 1.953-2.305l-0.497-3.442zM10 15.492c-1.395 0-2.526-1.12-2.526-2.5s1.131-2.5 2.526-2.5 2.526 1.12 2.526 2.5-1.132 2.5-2.526 2.5zM19.95 6c-0.024-1.5-3.842-3.999-9.95-4-6.109 0.001-9.927 2.5-9.95 4s0.021 3.452 2.535 3.127c2.941-0.381 2.76-1.408 2.76-2.876 0-1.024 2.392-1.271 4.655-1.271s4.654 0.247 4.655 1.271c0 1.468-0.181 2.495 2.76 2.876 2.513 0.325 2.558-1.627 2.535-3.127z"></path>
</symbol>
<symbol id="icon-pencil" viewBox="0 0 20 20">
<title>pencil</title>
<path d="M14.69 2.661c-1.894-1.379-3.242-1.349-3.754-1.266-0.144 0.023-0.265 0.106-0.35 0.223l-6.883 9.497c-0.277 0.382-0.437 0.836-0.462 1.307l-0.296 5.624c-0.021 0.405 0.382 0.698 0.76 0.553l5.256-2.010c0.443-0.17 0.828-0.465 1.106-0.849l6.88-9.494c0.089-0.123 0.125-0.273 0.1-0.423-0.084-0.526-0.487-1.802-2.357-3.162zM8.977 15.465l-2.043 0.789c-0.080 0.031-0.169 0.006-0.221-0.062-0.263-0.335-0.576-0.667-1.075-1.030-0.499-0.362-0.911-0.558-1.31-0.706-0.080-0.030-0.131-0.106-0.126-0.192l0.122-2.186 0.549-0.755c0 0 1.229-0.169 2.833 0.998 1.602 1.166 1.821 2.388 1.821 2.388l-0.55 0.756z"></path>
</symbol>
<symbol id="icon-pie-chart" viewBox="0 0 20 20">
<title>pie-chart</title>
<path d="M11 0.958v9.039c0 0.554-0.449 1.003-1.003 1.003h-9.039c0.498 4.555 4.355 8.1 9.042 8.1 5.026 0 9.1-4.074 9.1-9.1 0-4.688-3.545-8.544-8.1-9.042zM9 0.958c-4.226 0.462-7.58 3.816-8.042 8.042h8.042v-8.042z"></path>
</symbol>
<symbol id="icon-pin" viewBox="0 0 20 20">
<title>pin</title>
<path d="M4.774 15.287l-2.105 3.25 0.224 1.063 1.060-0.227 2.104-3.248c-0.224-0.12-0.446-0.248-0.661-0.39-0.218-0.141-0.426-0.292-0.622-0.448zM13.686 14.152c0.014-0.029 0.023-0.061 0.036-0.092 0.053-0.117 0.1-0.234 0.138-0.357 0.006-0.022 0.009-0.044 0.016-0.064 0.039-0.136 0.072-0.27 0.098-0.408 0-0.007 0-0.012 0-0.021 0.195-1.169-0.145-2.473-0.923-3.651l1.11-1.714c1.279 0.163 2.385-0.159 2.917-0.982 0.923-1.423-0.2-3.792-2.505-5.293-2.307-1.502-4.923-1.565-5.844-0.144-0.534 0.824-0.378 1.967 0.293 3.073l-1.112 1.714c-1.389-0.233-2.716-0.016-3.703 0.64-0.006 0.002-0.013 0.004-0.017 0.008-0.115 0.078-0.227 0.164-0.332 0.254-0.017 0.014-0.037 0.027-0.051 0.041-0.098 0.084-0.186 0.178-0.271 0.272-0.020 0.024-0.048 0.045-0.067 0.070-0.106 0.121-0.204 0.249-0.29 0.385-1.384 2.133-0.203 5.361 2.633 7.209 2.838 1.848 6.26 1.614 7.641-0.519 0.087-0.135 0.167-0.276 0.233-0.421zM12.871 4.194c-0.887-0.577-1.32-1.487-0.965-2.036 0.354-0.547 1.361-0.522 2.246 0.055 0.889 0.577 1.318 1.489 0.965 2.036s-1.358 0.522-2.246-0.055z"></path>
</symbol>
<symbol id="icon-plus" viewBox="0 0 20 20">
<title>plus</title>
<path d="M16 10c0 0.553-0.048 1-0.601 1h-4.399v4.399c0 0.552-0.447 0.601-1 0.601s-1-0.049-1-0.601v-4.399h-4.399c-0.552 0-0.601-0.447-0.601-1s0.049-1 0.601-1h4.399v-4.399c0-0.553 0.447-0.601 1-0.601s1 0.048 1 0.601v4.399h4.399c0.553 0 0.601 0.447 0.601 1z"></path>
</symbol>
<symbol id="icon-print" viewBox="0 0 20 20">
<title>print</title>
<path d="M1.501 6h17c0.57 0 0.477-0.608 0.193-0.707-0.285-0.099-3.443-1.293-3.994-1.293h-0.7v-3h-8v3h-0.699c-0.55 0-3.709 1.194-3.993 1.293s-0.377 0.707 0.193 0.707zM19 7h-18c-0.55 0-1 0.45-1 1v5c0 0.551 0.45 1 1 1h2.283l-0.882 5h15.199l-0.883-5h2.283c0.551 0 1-0.449 1-1v-5c0-0.55-0.449-1-1-1zM4.603 17l1.198-7.003h8.399l1.199 7.003h-10.796z"></path>
</symbol>
<symbol id="icon-progress-empty" viewBox="0 0 20 20">
<title>progress-empty</title>
<path d="M18 5h-16c-1.1 0-2 0.9-2 2v6c0 1.1 0.9 2 2 2h16c1.1 0 2-0.9 2-2v-6c0-1.1-0.9-2-2-2zM18 13h-16v-6h16v6z"></path>
</symbol>
<symbol id="icon-quote" viewBox="0 0 20 20">
<title>quote</title>
<path d="M5.315 3.401c-1.61 0-2.916 1.343-2.916 3s1.306 3 2.916 3c2.915 0 0.972 5.799-2.916 5.799v1.4c6.939 0.001 9.658-13.199 2.916-13.199zM13.715 3.401c-1.609 0-2.915 1.343-2.915 3s1.306 3 2.915 3c2.916 0 0.973 5.799-2.915 5.799v1.4c6.938 0.001 9.657-13.199 2.915-13.199z"></path>
</symbol>
<symbol id="icon-rocket" viewBox="0 0 20 20">
<title>rocket</title>
<path d="M11.933 13.069c0 0 7.059-5.094 6.276-10.924-0.017-0.127-0.059-0.213-0.112-0.268-0.054-0.055-0.137-0.098-0.263-0.115-5.697-0.801-10.674 6.422-10.674 6.422-4.318-0.517-4.004 0.344-5.974 5.076-0.377 0.902 0.234 1.213 0.904 0.959 0.67-0.252 2.148-0.811 2.148-0.811l2.59 2.648c0 0-0.546 1.514-0.793 2.199s0.055 1.311 0.938 0.926c4.624-2.016 5.466-1.694 4.96-6.112zM12.942 7.153c-0.598-0.613-0.598-1.604 0-2.217 0.598-0.611 1.567-0.611 2.166 0s0.598 1.603 0 2.217c-0.599 0.611-1.569 0.611-2.166 0z"></path>
</symbol>
<symbol id="icon-share-alternitive" viewBox="0 0 20 20">
<title>share-alternitive</title>
<path d="M9 13h2v-9h2l-3-4-3 4h2v9zM17 7h-3v2h2v9h-12v-9h2v-2h-3c-0.553 0-1 0.447-1 1v11c0 0.552 0.447 1 1 1h14c0.553 0 1-0.448 1-1v-11c0-0.552-0.447-1-1-1z"></path>
</symbol>
<symbol id="icon-shopping-cart" viewBox="0 0 20 20">
<title>shopping-cart</title>
<path d="M13 17c0 1.104 0.894 2 2 2 1.104 0 2-0.896 2-2 0-1.106-0.896-2-2-2-1.106 0-2 0.894-2 2zM3 17c0 1.104 0.895 2 2 2 1.103 0 2-0.896 2-2 0-1.106-0.897-2-2-2-1.105 0-2 0.894-2 2zM6.547 12.172l11.068-3.162c0.211-0.061 0.385-0.289 0.385-0.51v-5.5h-14v-1.6c0-0.22-0.181-0.4-0.399-0.4h-3.202c-0.219 0-0.399 0.18-0.399 0.4v1.6h2l1.91 8.957 0.090 0.943v1.649c0 0.219 0.18 0.4 0.4 0.4h13.2c0.22 0 0.4-0.182 0.4-0.4v-1.549h-11.248c-1.15 0-1.174-0.551-0.205-0.828z"></path>
</symbol>
<symbol id="icon-squared-cross" viewBox="0 0 20 20">
<title>squared-cross</title>
<path d="M16 2h-12c-1.1 0-2 0.9-2 2v12c0 1.1 0.9 2 2 2h12c1.1 0 2-0.9 2-2v-12c0-1.1-0.9-2-2-2zM13.061 14.789l-3.061-3.060-3.061 3.060-1.729-1.728 3.061-3.061-3.060-3.061 1.729-1.729 3.060 3.061 3.059-3.061 1.729 1.729-3.059 3.061 3.060 3.061-1.728 1.728z"></path>
</symbol>
<symbol id="icon-squared-minus" viewBox="0 0 20 20">
<title>squared-minus</title>
<path d="M16 2h-12c-1.1 0-2 0.9-2 2v12c0 1.1 0.9 2 2 2h12c1.1 0 2-0.9 2-2v-12c0-1.1-0.9-2-2-2zM15 11h-10v-2h10v2z"></path>
</symbol>
<symbol id="icon-squared-plus" viewBox="0 0 20 20">
<title>squared-plus</title>
<path d="M16 2h-12c-1.1 0-2 0.9-2 2v12c0 1.1 0.9 2 2 2h12c1.1 0 2-0.9 2-2v-12c0-1.1-0.9-2-2-2zM15 11h-4v4h-2v-4h-4v-2h4v-4h2v4h4v2z"></path>
</symbol>
<symbol id="icon-star-outlined" viewBox="0 0 20 20">
<title>star-outlined</title>
<path d="M18.8 8.022h-6.413l-2.387-6.722-2.389 6.722h-6.412l5.232 3.947-1.871 6.929 5.44-4.154 5.438 4.154-1.869-6.929 5.231-3.947zM10 12.783l-3.014 2.5 1.243-3.562-2.851-2.3 3.522 0.101 1.1-4.040 1.099 4.040 3.521-0.101-2.851 2.3 1.243 3.562-3.012-2.5z"></path>
</symbol>
<symbol id="icon-star" viewBox="0 0 20 20">
<title>star</title>
<path d="M10 1.3l2.388 6.722h6.412l-5.232 3.948 1.871 6.928-5.439-4.154-5.438 4.154 1.87-6.928-5.233-3.948h6.412l2.389-6.722z"></path>
</symbol>
<symbol id="icon-stopwatch" viewBox="0 0 20 20">
<title>stopwatch</title>
<path d="M7.376 6.745c-0.447 0.275 1.197 4.242 1.598 4.888 0.35 0.569 1.093 0.742 1.658 0.394 0.568-0.352 0.745-1.094 0.395-1.66-0.397-0.648-3.205-3.898-3.651-3.622zM7.041 2.402c0.928-0.323 1.922-0.502 2.959-0.502s2.031 0.179 2.959 0.502c0.329 0.114 0.765-0.115 0.572-0.611-0.141-0.36-0.277-0.712-0.332-0.855-0.131-0.339-0.6-0.619-0.804-0.665-0.772-0.174-1.572-0.271-2.395-0.271s-1.623 0.097-2.396 0.271c-0.204 0.046-0.672 0.326-0.803 0.665-0.055 0.143-0.192 0.495-0.332 0.855-0.193 0.496 0.243 0.726 0.572 0.611zM19.098 3.186c-0.192-0.23-0.396-0.455-0.613-0.672-0.216-0.217-0.441-0.42-0.67-0.613-0.153-0.129-0.603-0.234-0.888 0.051s-1.648 1.647-1.648 1.647c0.402 0.288 0.793 0.605 1.155 0.966s0.677 0.752 0.966 1.155c0 0 1.363-1.362 1.647-1.647 0.286-0.286 0.181-0.735 0.051-0.887zM10 2.9c-4.475 0-8.101 3.626-8.101 8.1s3.626 8.101 8.101 8.101c4.473 0 8.1-3.626 8.1-8.101 0-4.473-3.627-8.1-8.1-8.1zM10 17.101c-3.368 0-6.1-2.731-6.1-6.1s2.731-6.1 6.1-6.1c3.369 0 6.101 2.731 6.101 6.1s-2.732 6.1-6.101 6.1z"></path>
</symbol>
<symbol id="icon-suitcase" viewBox="0 0 20 20">
<title>suitcase</title>
<path d="M18 4h-1v15h1c1.1 0 2-0.9 2-2v-11c0-1.1-0.9-2-2-2zM0 6v11c0 1.1 0.899 2 2 2h1v-15h-1c-1.101 0-2 0.9-2 2zM13.5 1.906c-0.681-0.316-1.889-0.906-3.519-0.906-1.633 0-2.8 0.59-3.481 0.906v2.094h-2.5v15h12v-15h-2.5v-2.094zM12 4h-4v-1.336c0.534-0.23 1.078-0.465 1.981-0.465s1.486 0.234 2.019 0.465v1.336z"></path>
</symbol>
<symbol id="icon-tag" viewBox="0 0 20 20">
<title>tag</title>
<path d="M18.662 5.521l-13.425 13.479 0.707-4.967-4.945 0.709 13.425-13.479c0.391-0.392 1.133-0.308 1.412 0l2.826 2.839c0.5 0.473 0.391 1.026 0 1.419z"></path>
</symbol>
<symbol id="icon-thumbs-down" viewBox="0 0 20 20">
<title>thumbs-down</title>
<path d="M6.352 12.638c0.133 0.356-3.539 3.634-1.397 6.291 0.501 0.621 2.201-2.975 4.615-4.602 1.331-0.899 4.43-2.811 4.43-3.868v-6.842c0-1.271-4.914-2.617-8.648-2.617-1.369 0-3.352 8.576-3.352 9.939 0 1.367 4.221 1.343 4.352 1.699zM15 12.543c0.658 0 3-0.4 3-3.123v-4.848c0-2.721-2.342-3.021-3-3.021-0.657 0 1 0.572 1 2.26v6.373c0 1.768-1.657 2.359-1 2.359z"></path>
</symbol>
<symbol id="icon-thumbs-up" viewBox="0 0 20 20">
<title>thumbs-up</title>
<path d="M13.648 7.362c-0.133-0.355 3.539-3.634 1.398-6.291-0.501-0.621-2.201 2.975-4.615 4.603-1.332 0.898-4.431 2.81-4.431 3.867v6.842c0 1.271 4.914 2.617 8.648 2.617 1.369 0 3.352-8.576 3.352-9.938 0-1.368-4.221-1.344-4.352-1.7zM5 7.457c-0.658 0-3 0.4-3 3.123v4.848c0 2.721 2.342 3.021 3 3.021 0.657 0-1-0.572-1-2.26v-6.373c0-1.768 1.657-2.359 1-2.359z"></path>
</symbol>
<symbol id="icon-tools" viewBox="0 0 20 20">
<title>tools</title>
<path d="M3.135 6.89c0.933-0.725 1.707-0.225 2.74 0.971 0.116 0.135 0.272-0.023 0.361-0.1 0.088-0.078 1.451-1.305 1.518-1.361 0.066-0.059 0.146-0.169 0.041-0.292-0.107-0.123-0.494-0.625-0.743-0.951-1.808-2.365 4.946-3.969 3.909-3.994-0.528-0.014-2.646-0.039-2.963-0.004-1.283 0.135-2.894 1.334-3.705 1.893-1.061 0.726-1.457 1.152-1.522 1.211-0.3 0.262-0.048 0.867-0.592 1.344-0.575 0.503-0.934 0.122-1.267 0.414-0.165 0.146-0.627 0.492-0.759 0.607-0.133 0.117-0.157 0.314-0.021 0.471 0 0 1.264 1.396 1.37 1.52 0.105 0.122 0.391 0.228 0.567 0.071 0.177-0.156 0.632-0.553 0.708-0.623 0.078-0.066-0.050-0.861 0.358-1.177zM8.843 7.407c-0.12-0.139-0.269-0.143-0.397-0.029l-1.434 1.252c-0.113 0.1-0.129 0.283-0.027 0.4l8.294 9.439c0.194 0.223 0.53 0.246 0.751 0.053l0.97-0.813c0.222-0.195 0.245-0.533 0.052-0.758l-8.209-9.544zM19.902 3.39c-0.074-0.494-0.33-0.391-0.463-0.182-0.133 0.211-0.721 1.102-0.963 1.506-0.24 0.4-0.832 1.191-1.934 0.41-1.148-0.811-0.749-1.377-0.549-1.758 0.201-0.383 0.818-1.457 0.907-1.59 0.089-0.135-0.015-0.527-0.371-0.363s-2.523 1.025-2.823 2.26c-0.307 1.256 0.257 2.379-0.85 3.494l-1.343 1.4 1.349 1.566 1.654-1.57c0.394-0.396 1.236-0.781 1.998-0.607 1.633 0.369 2.524-0.244 3.061-1.258 0.482-0.906 0.402-2.814 0.327-3.308zM2.739 17.053c-0.208 0.209-0.208 0.549 0 0.758l0.951 0.93c0.208 0.209 0.538 0.121 0.746-0.088l4.907-4.824-1.503-1.714-5.101 4.938z"></path>
</symbol>
<symbol id="icon-tv" viewBox="0 0 20 20">
<title>tv</title>
<path d="M18 1h-16c-1.101 0-2 0.9-2 2v11c0 1.1 0.882 2.178 1.961 2.393l4.372 0.875c0 0-3.763 1.732-1.333 1.732h10c2.43 0-1.334-1.732-1.334-1.732l4.373-0.875c1.078-0.215 1.961-1.293 1.961-2.393v-11c0-1.1-0.9-2-2-2zM18 14h-16v-11h16v11z"></path>
</symbol>
<symbol id="icon-typing" viewBox="0 0 20 20">
<title>typing</title>
<path d="M16 4h-12c-1.101 0-2 0.9-2 2v7c0 1.1 0.899 2 2 2h4l4 3v-3h4c1.1 0 2-0.9 2-2v-7c0-1.1-0.9-2-2-2zM6 10.6c-0.607 0-1.1-0.492-1.1-1.1s0.492-1.1 1.1-1.1 1.1 0.492 1.1 1.1c0 0.607-0.493 1.1-1.1 1.1zM10 10.6c-0.607 0-1.1-0.492-1.1-1.1s0.492-1.1 1.1-1.1 1.1 0.492 1.1 1.1c0 0.607-0.493 1.1-1.1 1.1zM14 10.6c-0.607 0-1.1-0.492-1.1-1.1s0.492-1.1 1.1-1.1 1.1 0.492 1.1 1.1c0 0.607-0.493 1.1-1.1 1.1z"></path>
</symbol>
<symbol id="icon-user" viewBox="0 0 20 20">
<title>user</title>
<path d="M7.725 2.146c-1.016 0.756-1.289 1.953-1.239 2.59 0.064 0.779 0.222 1.793 0.222 1.793s-0.313 0.17-0.313 0.854c0.109 1.717 0.683 0.976 0.801 1.729 0.284 1.814 0.933 1.491 0.933 2.481 0 1.649-0.68 2.42-2.803 3.334-2.13 0.918-4.326 2.073-4.326 4.073v1h18v-1c0-2-2.197-3.155-4.328-4.072-2.123-0.914-2.801-1.684-2.801-3.334 0-0.99 0.647-0.667 0.932-2.481 0.119-0.753 0.692-0.012 0.803-1.729 0-0.684-0.314-0.854-0.314-0.854s0.158-1.014 0.221-1.793c0.065-0.817-0.398-2.561-2.3-3.096-0.333-0.34-0.558-0.881 0.466-1.424-2.24-0.105-2.761 1.067-3.954 1.929z"></path>
</symbol>
<symbol id="icon-users" viewBox="0 0 20 20">
<title>users</title>
<path d="M15.989 19.129c0-2.246-2.187-3.389-4.317-4.307-2.123-0.914-2.801-1.684-2.801-3.334 0-0.989 0.648-0.667 0.932-2.481 0.12-0.752 0.692-0.012 0.802-1.729 0-0.684-0.313-0.854-0.313-0.854s0.159-1.013 0.221-1.793c0.064-0.817-0.398-2.56-2.301-3.095-0.332-0.341-0.557-0.882 0.467-1.424-2.24-0.104-2.761 1.068-3.954 1.93-1.015 0.756-1.289 1.953-1.24 2.59 0.065 0.78 0.223 1.793 0.223 1.793s-0.314 0.17-0.314 0.854c0.11 1.718 0.684 0.977 0.803 1.729 0.284 1.814 0.933 1.492 0.933 2.481 0 1.65-0.212 2.21-2.336 3.124-2.131 0.917-2.794 2.387-2.783 4.516 0.003 0.637-0.011 0.871-0.011 0.871h16c0 0-0.011-0.234-0.011-0.871zM18.528 13.365c-1.135-0.457-1.605-1.002-1.605-2.066 0-0.641 0.418-0.432 0.602-1.603 0.077-0.484 0.447-0.008 0.518-1.115 0-0.441-0.202-0.551-0.202-0.551s0.103-0.656 0.143-1.159c0.050-0.627-0.364-2.247-2.268-2.247s-2.318 1.62-2.269 2.247c0.042 0.502 0.144 1.159 0.144 1.159s-0.202 0.109-0.202 0.551c0.071 1.107 0.441 0.631 0.518 1.115 0.184 1.172 0.602 0.963 0.602 1.603 0 1.064-0.438 1.562-1.809 2.152-0.069 0.029-0.12 0.068-0.183 0.102 1.64 0.712 4.226 1.941 4.838 4.447h2.645c0 0 0-1.906 0-2.318 0-1-0.273-1.834-1.472-2.317z"></path>
</symbol>
<symbol id="icon-v-card" viewBox="0 0 20 20">
<title>v-card</title>
<path d="M19 3h-18c-0.553 0-1 0.447-1 1v12c0 0.552 0.447 1 1 1h18c0.553 0 1-0.448 1-1v-12c0-0.552-0.447-1-1-1zM13 7h4v1h-4v-1zM11 14.803c-0.129-0.102-0.293-0.201-0.529-0.303-1.18-0.508-2.961-1.26-2.961-2.176 0-0.551 0.359-0.371 0.518-1.379 0.066-0.418 0.385-0.007 0.445-0.961 0-0.38-0.174-0.475-0.174-0.475s0.088-0.562 0.123-0.996c0.036-0.453-0.221-1.8-1.277-2.097-0.186-0.188-0.311-0.111 0.258-0.412-1.244-0.059-1.534 0.592-2.196 1.071-0.564 0.42-0.717 1.085-0.689 1.439 0.037 0.433 0.125 0.996 0.125 0.996s-0.175 0.094-0.175 0.474c0.061 0.954 0.38 0.543 0.445 0.961 0.158 1.008 0.519 0.828 0.519 1.379 0 0.916-1.781 1.668-2.961 2.176-0.203 0.088-0.349 0.173-0.471 0.26v-9.76h9v9.803zM18 11h-5v-1h5v1z"></path>
</symbol>
<symbol id="icon-pencil1" viewBox="0 0 32 32">
<title>pencil1</title>
<path d="M27 0c2.761 0 5 2.239 5 5 0 1.126-0.372 2.164-1 3l-2 2-7-7 2-2c0.836-0.628 1.874-1 3-1zM2 23l-2 9 9-2 18.5-18.5-7-7-18.5 18.5zM22.362 11.362l-14 14-1.724-1.724 14-14 1.724 1.724z"></path>
</symbol>
<symbol id="icon-music1" viewBox="0 0 32 32">
<title>music1</title>
<path d="M30 0h2v23c0 2.761-3.134 5-7 5s-7-2.239-7-5c0-2.761 3.134-5 7-5 1.959 0 3.729 0.575 5 1.501v-11.501l-16 3.556v15.444c0 2.761-3.134 5-7 5s-7-2.239-7-5c0-2.761 3.134-5 7-5 1.959 0 3.729 0.575 5 1.501v-19.501l18-4z"></path>
</symbol>
<symbol id="icon-books" viewBox="0 0 36 32">
<title>books</title>
<path d="M7 4h-6c-0.55 0-1 0.45-1 1v22c0 0.55 0.45 1 1 1h6c0.55 0 1-0.45 1-1v-22c0-0.55-0.45-1-1-1zM6 10h-4v-2h4v2z"></path>
<path d="M17 4h-6c-0.55 0-1 0.45-1 1v22c0 0.55 0.45 1 1 1h6c0.55 0 1-0.45 1-1v-22c0-0.55-0.45-1-1-1zM16 10h-4v-2h4v2z"></path>
<path d="M23.909 5.546l-5.358 2.7c-0.491 0.247-0.691 0.852-0.443 1.343l8.999 17.861c0.247 0.491 0.852 0.691 1.343 0.443l5.358-2.7c0.491-0.247 0.691-0.852 0.443-1.343l-8.999-17.861c-0.247-0.491-0.852-0.691-1.343-0.443z"></path>
</symbol>
<symbol id="icon-file-text" viewBox="0 0 32 32">
<title>file-text</title>
<path d="M27 0h-24c-1.65 0-3 1.35-3 3v26c0 1.65 1.35 3 3 3h24c1.65 0 3-1.35 3-3v-26c0-1.65-1.35-3-3-3zM26 28h-22v-24h22v24zM8 14h14v2h-14zM8 18h14v2h-14zM8 22h14v2h-14zM8 10h14v2h-14z"></path>
</symbol>
<symbol id="icon-profile" viewBox="0 0 32 32">
<title>profile</title>
<path d="M27 0h-24c-1.65 0-3 1.35-3 3v26c0 1.65 1.35 3 3 3h24c1.65 0 3-1.35 3-3v-26c0-1.65-1.35-3-3-3zM26 28h-22v-24h22v24zM8 18h14v2h-14zM8 22h14v2h-14zM10 9c0-1.657 1.343-3 3-3s3 1.343 3 3c0 1.657-1.343 3-3 3s-3-1.343-3-3zM15 12h-4c-1.65 0-3 0.9-3 2v2h10v-2c0-1.1-1.35-2-3-2z"></path>
</symbol>
<symbol id="icon-file-text2" viewBox="0 0 32 32">
<title>file-text2</title>
<path d="M28.681 7.159c-0.694-0.947-1.662-2.053-2.724-3.116s-2.169-2.030-3.116-2.724c-1.612-1.182-2.393-1.319-2.841-1.319h-15.5c-1.378 0-2.5 1.121-2.5 2.5v27c0 1.378 1.122 2.5 2.5 2.5h23c1.378 0 2.5-1.122 2.5-2.5v-19.5c0-0.448-0.137-1.23-1.319-2.841zM24.543 5.457c0.959 0.959 1.712 1.825 2.268 2.543h-4.811v-4.811c0.718 0.556 1.584 1.309 2.543 2.268zM28 29.5c0 0.271-0.229 0.5-0.5 0.5h-23c-0.271 0-0.5-0.229-0.5-0.5v-27c0-0.271 0.229-0.5 0.5-0.5 0 0 15.499-0 15.5 0v7c0 0.552 0.448 1 1 1h7v19.5z"></path>
<path d="M23 26h-14c-0.552 0-1-0.448-1-1s0.448-1 1-1h14c0.552 0 1 0.448 1 1s-0.448 1-1 1z"></path>
<path d="M23 22h-14c-0.552 0-1-0.448-1-1s0.448-1 1-1h14c0.552 0 1 0.448 1 1s-0.448 1-1 1z"></path>
<path d="M23 18h-14c-0.552 0-1-0.448-1-1s0.448-1 1-1h14c0.552 0 1 0.448 1 1s-0.448 1-1 1z"></path>
</symbol>
<symbol id="icon-paste" viewBox="0 0 32 32">
<title>paste</title>
<path d="M22 4h-4v-2c0-1.1-0.9-2-2-2h-4c-1.1 0-2 0.9-2 2v2h-4v4h16v-4zM16 4h-4v-1.996c0.001-0.001 0.002-0.002 0.004-0.004h3.993c0.001 0.001 0.003 0.002 0.004 0.004v1.996zM26 10v-5c0-0.55-0.45-1-1-1h-2v2h1v4h-6l-6 6v8h-8v-18h1v-2h-2c-0.55 0-1 0.45-1 1v20c0 0.55 0.45 1 1 1h9v6h20v-22h-6zM18 12.828v3.172h-3.172l3.172-3.172zM30 30h-16v-12h6v-6h10v18z"></path>
</symbol>
<symbol id="icon-stack" viewBox="0 0 32 32">
<title>stack</title>
<path d="M32 10l-16-8-16 8 16 8 16-8zM16 4.655l10.689 5.345-10.689 5.345-10.689-5.345 10.689-5.345zM28.795 14.398l3.205 1.602-16 8-16-8 3.205-1.602 12.795 6.398zM28.795 20.398l3.205 1.602-16 8-16-8 3.205-1.602 12.795 6.398z"></path>
</symbol>
<symbol id="icon-folder-plus" viewBox="0 0 32 32">
<title>folder-plus</title>
<path d="M18 8l-4-4h-14v26h32v-22h-14zM22 22h-4v4h-4v-4h-4v-4h4v-4h4v4h4v4z"></path>
</symbol>
<symbol id="icon-price-tags" viewBox="0 0 40 32">
<title>price-tags</title>
<path d="M38.5 0h-12c-0.825 0-1.977 0.477-2.561 1.061l-14.879 14.879c-0.583 0.583-0.583 1.538 0 2.121l12.879 12.879c0.583 0.583 1.538 0.583 2.121 0l14.879-14.879c0.583-0.583 1.061-1.736 1.061-2.561v-12c0-0.825-0.675-1.5-1.5-1.5zM31 12c-1.657 0-3-1.343-3-3s1.343-3 3-3 3 1.343 3 3-1.343 3-3 3z"></path>
<path d="M4 17l17-17h-2.5c-0.825 0-1.977 0.477-2.561 1.061l-14.879 14.879c-0.583 0.583-0.583 1.538 0 2.121l12.879 12.879c0.583 0.583 1.538 0.583 2.121 0l0.939-0.939-13-13z"></path>
</symbol>
<symbol id="icon-location2" viewBox="0 0 32 32">
<title>location2</title>
<path d="M16 0c-5.523 0-10 4.477-10 10 0 10 10 22 10 22s10-12 10-22c0-5.523-4.477-10-10-10zM16 16.125c-3.383 0-6.125-2.742-6.125-6.125s2.742-6.125 6.125-6.125 6.125 2.742 6.125 6.125-2.742 6.125-6.125 6.125zM12.125 10c0-2.14 1.735-3.875 3.875-3.875s3.875 1.735 3.875 3.875c0 2.14-1.735 3.875-3.875 3.875s-3.875-1.735-3.875-3.875z"></path>
</symbol>
<symbol id="icon-alarm" viewBox="0 0 32 32">
<title>alarm</title>
<path d="M16 4c-7.732 0-14 6.268-14 14s6.268 14 14 14 14-6.268 14-14-6.268-14-14-14zM16 29.25c-6.213 0-11.25-5.037-11.25-11.25s5.037-11.25 11.25-11.25c6.213 0 11.25 5.037 11.25 11.25s-5.037 11.25-11.25 11.25zM29.212 8.974c0.501-0.877 0.788-1.892 0.788-2.974 0-3.314-2.686-6-6-6-1.932 0-3.65 0.913-4.747 2.331 4.121 0.851 7.663 3.287 9.96 6.643v0zM12.748 2.331c-1.097-1.418-2.816-2.331-4.748-2.331-3.314 0-6 2.686-6 6 0 1.082 0.287 2.098 0.788 2.974 2.297-3.356 5.838-5.792 9.96-6.643z"></path>
<path d="M16 18v-8h-2v10h8v-2z"></path>
</symbol>
<symbol id="icon-bell1" viewBox="0 0 32 32">
<title>bell1</title>
<path d="M32.047 25c0-9-8-7-8-14 0-0.58-0.056-1.076-0.158-1.498-0.526-3.532-2.88-6.366-5.93-7.23 0.027-0.123 0.041-0.251 0.041-0.382 0-1.040-0.9-1.891-2-1.891s-2 0.851-2 1.891c0 0.131 0.014 0.258 0.041 0.382-3.421 0.969-5.966 4.416-6.039 8.545-0.001 0.060-0.002 0.121-0.002 0.183 0 7-8 5-8 14 0 2.382 5.331 4.375 12.468 4.878 0.673 1.263 2.002 2.122 3.532 2.122s2.86-0.86 3.532-2.122c7.137-0.503 12.468-2.495 12.468-4.878 0-0.007-0.001-0.014-0.001-0.021l0.048 0.021zM25.82 26.691c-1.695 0.452-3.692 0.777-5.837 0.958-0.178-2.044-1.893-3.648-3.984-3.648s-3.805 1.604-3.984 3.648c-2.144-0.18-4.142-0.506-5.837-0.958-2.332-0.622-3.447-1.318-3.855-1.691 0.408-0.372 1.523-1.068 3.855-1.691 2.712-0.724 6.199-1.122 9.82-1.122s7.109 0.398 9.82 1.122c2.332 0.622 3.447 1.318 3.855 1.691-0.408 0.372-1.523 1.068-3.855 1.691z"></path>
</symbol>
<symbol id="icon-calendar1" viewBox="0 0 32 32">
<title>calendar1</title>
<path d="M10 12h4v4h-4zM16 12h4v4h-4zM22 12h4v4h-4zM4 24h4v4h-4zM10 24h4v4h-4zM16 24h4v4h-4zM10 18h4v4h-4zM16 18h4v4h-4zM22 18h4v4h-4zM4 18h4v4h-4zM26 0v2h-4v-2h-14v2h-4v-2h-4v32h30v-32h-4zM28 30h-26v-22h26v22z"></path>
</symbol>
<symbol id="icon-users1" viewBox="0 0 36 32">
<title>users1</title>
<path d="M24 24.082v-1.649c2.203-1.241 4-4.337 4-7.432 0-4.971 0-9-6-9s-6 4.029-6 9c0 3.096 1.797 6.191 4 7.432v1.649c-6.784 0.555-12 3.888-12 7.918h28c0-4.030-5.216-7.364-12-7.918z"></path>
<path d="M10.225 24.854c1.728-1.13 3.877-1.989 6.243-2.513-0.47-0.556-0.897-1.176-1.265-1.844-0.95-1.726-1.453-3.627-1.453-5.497 0-2.689 0-5.228 0.956-7.305 0.928-2.016 2.598-3.265 4.976-3.734-0.529-2.39-1.936-3.961-5.682-3.961-6 0-6 4.029-6 9 0 3.096 1.797 6.191 4 7.432v1.649c-6.784 0.555-12 3.888-12 7.918h8.719c0.454-0.403 0.956-0.787 1.506-1.146z"></path>
</symbol>
<symbol id="icon-user-plus" viewBox="0 0 32 32">
<title>user-plus</title>
<path d="M12 23c0-4.726 2.996-8.765 7.189-10.319 0.509-1.142 0.811-2.411 0.811-3.681 0-4.971 0-9-6-9s-6 4.029-6 9c0 3.096 1.797 6.191 4 7.432v1.649c-6.784 0.555-12 3.888-12 7.918h12.416c-0.271-0.954-0.416-1.96-0.416-3z"></path>
<path d="M23 14c-4.971 0-9 4.029-9 9s4.029 9 9 9c4.971 0 9-4.029 9-9s-4.029-9-9-9zM28 24h-4v4h-2v-4h-4v-2h4v-4h2v4h4v2z"></path>
</symbol>
<symbol id="icon-user-minus" viewBox="0 0 32 32">
<title>user-minus</title>
<path d="M12 23c0-4.726 2.996-8.765 7.189-10.319 0.509-1.142 0.811-2.411 0.811-3.681 0-4.971 0-9-6-9s-6 4.029-6 9c0 3.096 1.797 6.191 4 7.432v1.649c-6.784 0.555-12 3.888-12 7.918h12.416c-0.271-0.954-0.416-1.96-0.416-3z"></path>
<path d="M23 14c-4.971 0-9 4.029-9 9s4.029 9 9 9c4.971 0 9-4.029 9-9s-4.029-9-9-9zM28 24h-10v-2h10v2z"></path>
</symbol>
<symbol id="icon-user-check" viewBox="0 0 32 32">
<title>user-check</title>
<path d="M30 19l-9 9-3-3-2 2 5 5 11-11z"></path>
<path d="M14 24h10v-3.598c-2.101-1.225-4.885-2.066-8-2.321v-1.649c2.203-1.242 4-4.337 4-7.432 0-4.971 0-9-6-9s-6 4.029-6 9c0 3.096 1.797 6.191 4 7.432v1.649c-6.784 0.555-12 3.888-12 7.918h14v-2z"></path>
</symbol>
<symbol id="icon-spinner11" viewBox="0 0 32 32">
<title>spinner11</title>
<path d="M32 12h-12l4.485-4.485c-2.267-2.266-5.28-3.515-8.485-3.515s-6.219 1.248-8.485 3.515c-2.266 2.267-3.515 5.28-3.515 8.485s1.248 6.219 3.515 8.485c2.267 2.266 5.28 3.515 8.485 3.515s6.219-1.248 8.485-3.515c0.189-0.189 0.371-0.384 0.546-0.583l3.010 2.634c-2.933 3.349-7.239 5.464-12.041 5.464-8.837 0-16-7.163-16-16s7.163-16 16-16c4.418 0 8.418 1.791 11.313 4.687l4.687-4.687v12z"></path>
</symbol>
<symbol id="icon-enlarge" viewBox="0 0 32 32">
<title>enlarge</title>
<path d="M32 0h-13l5 5-6 6 3 3 6-6 5 5z"></path>
<path d="M32 32v-13l-5 5-6-6-3 3 6 6-5 5z"></path>
<path d="M0 32h13l-5-5 6-6-3-3-6 6-5-5z"></path>
<path d="M0 0v13l5-5 6 6 3-3-6-6 5-5z"></path>
</symbol>
<symbol id="icon-shrink" viewBox="0 0 32 32">
<title>shrink</title>
<path d="M18 14h13l-5-5 6-6-3-3-6 6-5-5z"></path>
<path d="M18 18v13l5-5 6 6 3-3-6-6 5-5z"></path>
<path d="M14 18h-13l5 5-6 6 3 3 6-6 5 5z"></path>
<path d="M14 14v-13l-5 5-6-6-3 3 6 6-5 5z"></path>
</symbol>
<symbol id="icon-cog1" viewBox="0 0 32 32">
<title>cog1</title>
<path d="M29.181 19.070c-1.679-2.908-0.669-6.634 2.255-8.328l-3.145-5.447c-0.898 0.527-1.943 0.829-3.058 0.829-3.361 0-6.085-2.742-6.085-6.125h-6.289c0.008 1.044-0.252 2.103-0.811 3.070-1.679 2.908-5.411 3.897-8.339 2.211l-3.144 5.447c0.905 0.515 1.689 1.268 2.246 2.234 1.676 2.903 0.672 6.623-2.241 8.319l3.145 5.447c0.895-0.522 1.935-0.82 3.044-0.82 3.35 0 6.067 2.725 6.084 6.092h6.289c-0.003-1.034 0.259-2.080 0.811-3.038 1.676-2.903 5.399-3.894 8.325-2.219l3.145-5.447c-0.899-0.515-1.678-1.266-2.232-2.226zM16 22.479c-3.578 0-6.479-2.901-6.479-6.479s2.901-6.479 6.479-6.479c3.578 0 6.479 2.901 6.479 6.479s-2.901 6.479-6.479 6.479z"></path>
</symbol>
<symbol id="icon-cogs" viewBox="0 0 32 32">
<title>cogs</title>
<path d="M11.366 22.564l1.291-1.807-1.414-1.414-1.807 1.291c-0.335-0.187-0.694-0.337-1.071-0.444l-0.365-2.19h-2l-0.365 2.19c-0.377 0.107-0.736 0.256-1.071 0.444l-1.807-1.291-1.414 1.414 1.291 1.807c-0.187 0.335-0.337 0.694-0.443 1.071l-2.19 0.365v2l2.19 0.365c0.107 0.377 0.256 0.736 0.444 1.071l-1.291 1.807 1.414 1.414 1.807-1.291c0.335 0.187 0.694 0.337 1.071 0.444l0.365 2.19h2l0.365-2.19c0.377-0.107 0.736-0.256 1.071-0.444l1.807 1.291 1.414-1.414-1.291-1.807c0.187-0.335 0.337-0.694 0.444-1.071l2.19-0.365v-2l-2.19-0.365c-0.107-0.377-0.256-0.736-0.444-1.071zM7 27c-1.105 0-2-0.895-2-2s0.895-2 2-2 2 0.895 2 2-0.895 2-2 2zM32 12v-2l-2.106-0.383c-0.039-0.251-0.088-0.499-0.148-0.743l1.799-1.159-0.765-1.848-2.092 0.452c-0.132-0.216-0.273-0.426-0.422-0.629l1.219-1.761-1.414-1.414-1.761 1.219c-0.203-0.149-0.413-0.29-0.629-0.422l0.452-2.092-1.848-0.765-1.159 1.799c-0.244-0.059-0.492-0.109-0.743-0.148l-0.383-2.106h-2l-0.383 2.106c-0.251 0.039-0.499 0.088-0.743 0.148l-1.159-1.799-1.848 0.765 0.452 2.092c-0.216 0.132-0.426 0.273-0.629 0.422l-1.761-1.219-1.414 1.414 1.219 1.761c-0.149 0.203-0.29 0.413-0.422 0.629l-2.092-0.452-0.765 1.848 1.799 1.159c-0.059 0.244-0.109 0.492-0.148 0.743l-2.106 0.383v2l2.106 0.383c0.039 0.251 0.088 0.499 0.148 0.743l-1.799 1.159 0.765 1.848 2.092-0.452c0.132 0.216 0.273 0.426 0.422 0.629l-1.219 1.761 1.414 1.414 1.761-1.219c0.203 0.149 0.413 0.29 0.629 0.422l-0.452 2.092 1.848 0.765 1.159-1.799c0.244 0.059 0.492 0.109 0.743 0.148l0.383 2.106h2l0.383-2.106c0.251-0.039 0.499-0.088 0.743-0.148l1.159 1.799 1.848-0.765-0.452-2.092c0.216-0.132 0.426-0.273 0.629-0.422l1.761 1.219 1.414-1.414-1.219-1.761c0.149-0.203 0.29-0.413 0.422-0.629l2.092 0.452 0.765-1.848-1.799-1.159c0.059-0.244 0.109-0.492 0.148-0.743l2.106-0.383zM21 15.35c-2.402 0-4.35-1.948-4.35-4.35s1.948-4.35 4.35-4.35 4.35 1.948 4.35 4.35c0 2.402-1.948 4.35-4.35 4.35z"></path>
</symbol>
<symbol id="icon-stats-bars" viewBox="0 0 32 32">
<title>stats-bars</title>
<path d="M0 26h32v4h-32zM4 18h4v6h-4zM10 10h4v14h-4zM16 16h4v8h-4zM22 4h4v20h-4z"></path>
</symbol>
<symbol id="icon-menu1" viewBox="0 0 32 32">
<title>menu1</title>
<path d="M2 6h28v6h-28zM2 14h28v6h-28zM2 22h28v6h-28z"></path>
</symbol>
<symbol id="icon-heart1" viewBox="0 0 32 32">
<title>heart1</title>
<path d="M23.6 2c-3.363 0-6.258 2.736-7.599 5.594-1.342-2.858-4.237-5.594-7.601-5.594-4.637 0-8.4 3.764-8.4 8.401 0 9.433 9.516 11.906 16.001 21.232 6.13-9.268 15.999-12.1 15.999-21.232 0-4.637-3.763-8.401-8.4-8.401z"></path>
</symbol>
<symbol id="icon-plus1" viewBox="0 0 32 32">
<title>plus1</title>
<path d="M31 12h-11v-11c0-0.552-0.448-1-1-1h-6c-0.552 0-1 0.448-1 1v11h-11c-0.552 0-1 0.448-1 1v6c0 0.552 0.448 1 1 1h11v11c0 0.552 0.448 1 1 1h6c0.552 0 1-0.448 1-1v-11h11c0.552 0 1-0.448 1-1v-6c0-0.552-0.448-1-1-1z"></path>
</symbol>
<symbol id="icon-minus1" viewBox="0 0 32 32">
<title>minus1</title>
<path d="M0 13v6c0 0.552 0.448 1 1 1h30c0.552 0 1-0.448 1-1v-6c0-0.552-0.448-1-1-1h-30c-0.552 0-1 0.448-1 1z"></path>
</symbol>
<symbol id="icon-cross1" viewBox="0 0 32 32">
<title>cross1</title>
<path d="M31.708 25.708c-0-0-0-0-0-0l-9.708-9.708 9.708-9.708c0-0 0-0 0-0 0.105-0.105 0.18-0.227 0.229-0.357 0.133-0.356 0.057-0.771-0.229-1.057l-4.586-4.586c-0.286-0.286-0.702-0.361-1.057-0.229-0.13 0.048-0.252 0.124-0.357 0.228 0 0-0 0-0 0l-9.708 9.708-9.708-9.708c-0-0-0-0-0-0-0.105-0.104-0.227-0.18-0.357-0.228-0.356-0.133-0.771-0.057-1.057 0.229l-4.586 4.586c-0.286 0.286-0.361 0.702-0.229 1.057 0.049 0.13 0.124 0.252 0.229 0.357 0 0 0 0 0 0l9.708 9.708-9.708 9.708c-0 0-0 0-0 0-0.104 0.105-0.18 0.227-0.229 0.357-0.133 0.355-0.057 0.771 0.229 1.057l4.586 4.586c0.286 0.286 0.702 0.361 1.057 0.229 0.13-0.049 0.252-0.124 0.357-0.229 0-0 0-0 0-0l9.708-9.708 9.708 9.708c0 0 0 0 0 0 0.105 0.105 0.227 0.18 0.357 0.229 0.356 0.133 0.771 0.057 1.057-0.229l4.586-4.586c0.286-0.286 0.362-0.702 0.229-1.057-0.049-0.13-0.124-0.252-0.229-0.357z"></path>
</symbol>
<symbol id="icon-checkmark" viewBox="0 0 32 32">
<title>checkmark</title>
<path d="M27 4l-15 15-7-7-5 5 12 12 20-20z"></path>
</symbol>
<symbol id="icon-play2" viewBox="0 0 32 32">
<title>play2</title>
<path d="M16 0c-8.837 0-16 7.163-16 16s7.163 16 16 16 16-7.163 16-16-7.163-16-16-16zM16 29c-7.18 0-13-5.82-13-13s5.82-13 13-13 13 5.82 13 13-5.82 13-13 13zM12 9l12 7-12 7z"></path>
</symbol>
<symbol id="icon-pause" viewBox="0 0 32 32">
<title>pause</title>
<path d="M16 0c-8.837 0-16 7.163-16 16s7.163 16 16 16 16-7.163 16-16-7.163-16-16-16zM16 29c-7.18 0-13-5.82-13-13s5.82-13 13-13 13 5.82 13 13-5.82 13-13 13zM10 10h4v12h-4zM18 10h4v12h-4z"></path>
</symbol>
<symbol id="icon-stop" viewBox="0 0 32 32">
<title>stop</title>
<path d="M16 0c-8.837 0-16 7.163-16 16s7.163 16 16 16 16-7.163 16-16-7.163-16-16-16zM16 29c-7.18 0-13-5.82-13-13s5.82-13 13-13 13 5.82 13 13-5.82 13-13 13zM10 10h12v12h-12z"></path>
</symbol>
<symbol id="icon-previous" viewBox="0 0 32 32">
<title>previous</title>
<path d="M16 0c-8.837 0-16 7.163-16 16s7.163 16 16 16 16-7.163 16-16-7.163-16-16-16zM16 29c-7.18 0-13-5.82-13-13s5.82-13 13-13 13 5.82 13 13-5.82 13-13 13z"></path>
<path d="M14 16l8-6v12z"></path>
<path d="M10 10h4v12h-4v-12z"></path>
</symbol>
<symbol id="icon-next" viewBox="0 0 32 32">
<title>next</title>
<path d="M16 0c8.837 0 16 7.163 16 16s-7.163 16-16 16-16-7.163-16-16 7.163-16 16-16zM16 29c7.18 0 13-5.82 13-13s-5.82-13-13-13-13 5.82-13 13 5.82 13 13 13z"></path>
<path d="M18 16l-8-6v12z"></path>
<path d="M22 10h-4v12h4v-12z"></path>
</symbol>
<symbol id="icon-backward" viewBox="0 0 32 32">
<title>backward</title>
<path d="M16 32c8.837 0 16-7.163 16-16s-7.163-16-16-16-16 7.163-16 16 7.163 16 16 16zM16 3c7.18 0 13 5.82 13 13s-5.82 13-13 13-13-5.82-13-13 5.82-13 13-13zM22 21l-7-5 7-5zM14 21l-7-5 7-5z"></path>
</symbol>
<symbol id="icon-forward2" viewBox="0 0 32 32">
<title>forward2</title>
<path d="M16 0c-8.837 0-16 7.163-16 16s7.163 16 16 16 16-7.163 16-16-7.163-16-16-16zM16 29c-7.18 0-13-5.82-13-13s5.82-13 13-13 13 5.82 13 13-5.82 13-13 13zM10 11l7 5-7 5zM18 11l7 5-7 5z"></path>
</symbol>
<symbol id="icon-play3" viewBox="0 0 32 32">
<title>play3</title>
<path d="M6 4l20 12-20 12z"></path>
</symbol>
<symbol id="icon-pause2" viewBox="0 0 32 32">
<title>pause2</title>
<path d="M4 4h10v24h-10zM18 4h10v24h-10z"></path>
</symbol>
<symbol id="icon-stop2" viewBox="0 0 32 32">
<title>stop2</title>
<path d="M4 4h24v24h-24z"></path>
</symbol>
<symbol id="icon-backward2" viewBox="0 0 32 32">
<title>backward2</title>
<path d="M18 5v10l10-10v22l-10-10v10l-11-11z"></path>
</symbol>
<symbol id="icon-forward3" viewBox="0 0 32 32">
<title>forward3</title>
<path d="M16 27v-10l-10 10v-22l10 10v-10l11 11z"></path>
</symbol>
<symbol id="icon-volume-high" viewBox="0 0 34 32">
<title>volume-high</title>
<path d="M27.814 28.814c-0.384 0-0.768-0.146-1.061-0.439-0.586-0.586-0.586-1.535 0-2.121 2.739-2.739 4.247-6.38 4.247-10.253s-1.508-7.514-4.247-10.253c-0.586-0.586-0.586-1.536 0-2.121s1.536-0.586 2.121 0c3.305 3.305 5.126 7.7 5.126 12.374s-1.82 9.069-5.126 12.374c-0.293 0.293-0.677 0.439-1.061 0.439zM22.485 25.985c-0.384 0-0.768-0.146-1.061-0.439-0.586-0.586-0.586-1.535 0-2.121 4.094-4.094 4.094-10.755 0-14.849-0.586-0.586-0.586-1.536 0-2.121s1.536-0.586 2.121 0c2.55 2.55 3.954 5.94 3.954 9.546s-1.404 6.996-3.954 9.546c-0.293 0.293-0.677 0.439-1.061 0.439v0zM17.157 23.157c-0.384 0-0.768-0.146-1.061-0.439-0.586-0.586-0.586-1.535 0-2.121 2.534-2.534 2.534-6.658 0-9.192-0.586-0.586-0.586-1.536 0-2.121s1.535-0.586 2.121 0c3.704 3.704 3.704 9.731 0 13.435-0.293 0.293-0.677 0.439-1.061 0.439z"></path>
<path d="M13 30c-0.26 0-0.516-0.102-0.707-0.293l-7.707-7.707h-3.586c-0.552 0-1-0.448-1-1v-10c0-0.552 0.448-1 1-1h3.586l7.707-7.707c0.286-0.286 0.716-0.372 1.090-0.217s0.617 0.519 0.617 0.924v26c0 0.404-0.244 0.769-0.617 0.924-0.124 0.051-0.254 0.076-0.383 0.076z"></path>
</symbol>
<symbol id="icon-volume-mute2" viewBox="0 0 32 32">
<title>volume-mute2</title>
<path d="M30 19.348v2.652h-2.652l-3.348-3.348-3.348 3.348h-2.652v-2.652l3.348-3.348-3.348-3.348v-2.652h2.652l3.348 3.348 3.348-3.348h2.652v2.652l-3.348 3.348 3.348 3.348z"></path>
<path d="M13 30c-0.26 0-0.516-0.102-0.707-0.293l-7.707-7.707h-3.586c-0.552 0-1-0.448-1-1v-10c0-0.552 0.448-1 1-1h3.586l7.707-7.707c0.286-0.286 0.716-0.372 1.090-0.217s0.617 0.519 0.617 0.924v26c0 0.404-0.244 0.769-0.617 0.924-0.124 0.051-0.254 0.076-0.383 0.076z"></path>
</symbol>
<symbol id="icon-circle-up" viewBox="0 0 32 32">
<title>circle-up</title>
<path d="M0 16c0 8.837 7.163 16 16 16s16-7.163 16-16-7.163-16-16-16-16 7.163-16 16zM29 16c0 7.18-5.82 13-13 13s-13-5.82-13-13 5.82-13 13-13 13 5.82 13 13z"></path>
<path d="M22.086 20.914l2.829-2.829-8.914-8.914-8.914 8.914 2.828 2.828 6.086-6.086z"></path>
</symbol>
<symbol id="icon-circle-right" viewBox="0 0 32 32">
<title>circle-right</title>
<path d="M16 0c-8.837 0-16 7.163-16 16s7.163 16 16 16 16-7.163 16-16-7.163-16-16-16zM16 29c-7.18 0-13-5.82-13-13s5.82-13 13-13 13 5.82 13 13-5.82 13-13 13z"></path>
<path d="M11.086 22.086l2.829 2.829 8.914-8.914-8.914-8.914-2.828 2.828 6.086 6.086z"></path>
</symbol>
<symbol id="icon-circle-down" viewBox="0 0 32 32">
<title>circle-down</title>
<path d="M32 16c0-8.837-7.163-16-16-16s-16 7.163-16 16 7.163 16 16 16 16-7.163 16-16zM3 16c0-7.18 5.82-13 13-13s13 5.82 13 13-5.82 13-13 13-13-5.82-13-13z"></path>
<path d="M9.914 11.086l-2.829 2.829 8.914 8.914 8.914-8.914-2.828-2.828-6.086 6.086z"></path>
</symbol>
<symbol id="icon-circle-left" viewBox="0 0 32 32">
<title>circle-left</title>
<path d="M16 32c8.837 0 16-7.163 16-16s-7.163-16-16-16-16 7.163-16 16 7.163 16 16 16zM16 3c7.18 0 13 5.82 13 13s-5.82 13-13 13-13-5.82-13-13 5.82-13 13-13z"></path>
<path d="M20.914 9.914l-2.829-2.829-8.914 8.914 8.914 8.914 2.828-2.828-6.086-6.086z"></path>
</symbol>
<symbol id="icon-paragraph-justify" viewBox="0 0 32 32">
<title>paragraph-justify</title>
<path d="M0 2h32v4h-32zM0 8h32v4h-32zM0 14h32v4h-32zM0 20h32v4h-32zM0 26h32v4h-32z"></path>
</symbol>
<symbol id="icon-whatsapp" viewBox="0 0 32 32">
<title>whatsapp</title>
<path d="M27.281 4.65c-2.994-3-6.975-4.65-11.219-4.65-8.738 0-15.85 7.112-15.85 15.856 0 2.794 0.731 5.525 2.119 7.925l-2.25 8.219 8.406-2.206c2.319 1.262 4.925 1.931 7.575 1.931h0.006c0 0 0 0 0 0 8.738 0 15.856-7.113 15.856-15.856 0-4.238-1.65-8.219-4.644-11.219zM16.069 29.050v0c-2.369 0-4.688-0.637-6.713-1.837l-0.481-0.288-4.987 1.306 1.331-4.863-0.313-0.5c-1.325-2.094-2.019-4.519-2.019-7.012 0-7.269 5.912-13.181 13.188-13.181 3.519 0 6.831 1.375 9.319 3.862 2.488 2.494 3.856 5.8 3.856 9.325-0.006 7.275-5.919 13.188-13.181 13.188zM23.294 19.175c-0.394-0.2-2.344-1.156-2.706-1.288s-0.625-0.2-0.894 0.2c-0.262 0.394-1.025 1.288-1.256 1.556-0.231 0.262-0.462 0.3-0.856 0.1s-1.675-0.619-3.188-1.969c-1.175-1.050-1.975-2.35-2.206-2.744s-0.025-0.613 0.175-0.806c0.181-0.175 0.394-0.463 0.594-0.694s0.262-0.394 0.394-0.662c0.131-0.262 0.069-0.494-0.031-0.694s-0.894-2.15-1.219-2.944c-0.319-0.775-0.65-0.669-0.894-0.681-0.231-0.012-0.494-0.012-0.756-0.012s-0.694 0.1-1.056 0.494c-0.363 0.394-1.387 1.356-1.387 3.306s1.419 3.831 1.619 4.1c0.2 0.262 2.794 4.269 6.769 5.981 0.944 0.406 1.681 0.65 2.256 0.837 0.95 0.3 1.813 0.256 2.494 0.156 0.762-0.113 2.344-0.956 2.675-1.881s0.331-1.719 0.231-1.881c-0.094-0.175-0.356-0.275-0.756-0.475z"></path>
</symbol>
<symbol id="icon-file-pdf" viewBox="0 0 32 32">
<title>file-pdf</title>
<path d="M26.313 18.421c-0.427-0.42-1.372-0.643-2.812-0.662-0.974-0.011-2.147 0.075-3.38 0.248-0.552-0.319-1.122-0.665-1.568-1.083-1.202-1.122-2.205-2.68-2.831-4.394 0.041-0.16 0.075-0.301 0.108-0.444 0 0 0.677-3.846 0.498-5.146-0.025-0.178-0.040-0.23-0.088-0.369l-0.059-0.151c-0.184-0.425-0.545-0.875-1.111-0.85l-0.341-0.011c-0.631 0-1.146 0.323-1.281 0.805-0.411 1.514 0.013 3.778 0.781 6.711l-0.197 0.478c-0.55 1.34-1.238 2.689-1.846 3.88l-0.079 0.155c-0.639 1.251-1.22 2.313-1.745 3.213l-0.543 0.287c-0.040 0.021-0.97 0.513-1.188 0.645-1.852 1.106-3.079 2.361-3.282 3.357-0.065 0.318-0.017 0.725 0.313 0.913l0.525 0.264c0.228 0.114 0.468 0.172 0.714 0.172 1.319 0 2.85-1.643 4.959-5.324 2.435-0.793 5.208-1.452 7.638-1.815 1.852 1.043 4.129 1.767 5.567 1.767 0.255 0 0.475-0.024 0.654-0.072 0.276-0.073 0.508-0.23 0.65-0.444 0.279-0.42 0.335-0.998 0.26-1.59-0.023-0.176-0.163-0.393-0.315-0.541zM6.614 25.439c0.241-0.658 1.192-1.958 2.6-3.111 0.088-0.072 0.306-0.276 0.506-0.466-1.472 2.348-2.458 3.283-3.106 3.577zM14.951 6.24c0.424 0 0.665 1.069 0.685 2.070s-0.214 1.705-0.505 2.225c-0.241-0.77-0.357-1.984-0.357-2.778 0 0-0.018-1.517 0.177-1.517v0zM12.464 19.922c0.295-0.529 0.603-1.086 0.917-1.677 0.765-1.447 1.249-2.58 1.609-3.511 0.716 1.303 1.608 2.41 2.656 3.297 0.131 0.111 0.269 0.222 0.415 0.333-2.132 0.422-3.974 0.935-5.596 1.558v0zM25.903 19.802c-0.13 0.081-0.502 0.128-0.741 0.128-0.772 0-1.727-0.353-3.066-0.927 0.515-0.038 0.986-0.057 1.409-0.057 0.774 0 1.004-0.003 1.761 0.19s0.767 0.585 0.637 0.667v0z"></path>
<path d="M28.681 7.159c-0.694-0.947-1.662-2.053-2.724-3.116s-2.169-2.030-3.116-2.724c-1.612-1.182-2.393-1.319-2.841-1.319h-15.5c-1.378 0-2.5 1.121-2.5 2.5v27c0 1.378 1.121 2.5 2.5 2.5h23c1.378 0 2.5-1.122 2.5-2.5v-19.5c0-0.448-0.137-1.23-1.319-2.841v0zM24.543 5.457c0.959 0.959 1.712 1.825 2.268 2.543h-4.811v-4.811c0.718 0.556 1.584 1.309 2.543 2.268v0zM28 29.5c0 0.271-0.229 0.5-0.5 0.5h-23c-0.271 0-0.5-0.229-0.5-0.5v-27c0-0.271 0.229-0.5 0.5-0.5 0 0 15.499-0 15.5 0v7c0 0.552 0.448 1 1 1h7v19.5z"></path>
</symbol>
<symbol id="icon-file-word" viewBox="0 0 32 32">
<title>file-word</title>
<path d="M19.993 14.872h1.382l-1.594 7.068-2.073-9.938h-3.33l-2.41 9.938-1.807-9.938h-3.481l3.534 15.996h3.401l2.384-9.46 2.133 9.46h3.136l4.051-15.996h-5.326v2.87z"></path>
<path d="M28.681 7.159c-0.694-0.947-1.662-2.053-2.724-3.116s-2.169-2.030-3.116-2.724c-1.612-1.182-2.393-1.319-2.841-1.319h-15.5c-1.378 0-2.5 1.121-2.5 2.5v27c0 1.378 1.121 2.5 2.5 2.5h23c1.378 0 2.5-1.122 2.5-2.5v-19.5c0-0.448-0.137-1.23-1.319-2.841v0zM24.543 5.457c0.959 0.959 1.712 1.825 2.268 2.543h-4.811v-4.811c0.718 0.556 1.584 1.309 2.543 2.268v0zM28 29.5c0 0.271-0.229 0.5-0.5 0.5h-23c-0.271 0-0.5-0.229-0.5-0.5v-27c0-0.271 0.229-0.5 0.5-0.5 0 0 15.499-0 15.5 0v7c0 0.552 0.448 1 1 1h7v19.5z"></path>
</symbol>
<symbol id="icon-libreoffice" viewBox="0 0 32 32">
<title>libreoffice</title>
<path d="M16.707 0.707c-0.389-0.389-1.157-0.707-1.707-0.707h-12c-0.55 0-1 0.45-1 1v30c0 0.55 0.45 1 1 1h24c0.55 0 1-0.45 1-1v-18c0-0.55-0.318-1.318-0.707-1.707l-10.586-10.586zM26 30h-22v-28h10.974c0.091 0.015 0.263 0.086 0.338 0.14l10.549 10.549c0.054 0.075 0.125 0.247 0.14 0.338v16.974zM27 0h-6c-0.55 0-0.682 0.318-0.293 0.707l6.586 6.586c0.389 0.389 0.707 0.257 0.707-0.293v-6c0-0.55-0.45-1-1-1z"></path>
</symbol>
<symbol id="icon-svg" viewBox="0 0 32 32">
<title>svg</title>
<path d="M29 13c-0.888 0-1.686 0.386-2.236 1h-5.936l4.197-4.197c0.822 0.046 1.66-0.245 2.288-0.874 1.172-1.172 1.172-3.071 0-4.243s-3.071-1.172-4.243 0c-0.628 0.628-0.919 1.466-0.874 2.288l-4.197 4.197v-5.936c0.614-0.549 1-1.347 1-2.236 0-1.657-1.343-3-3-3s-3 1.343-3 3c0 0.888 0.386 1.686 1 2.236v5.936l-4.197-4.197c0.045-0.822-0.245-1.66-0.874-2.288-1.172-1.172-3.071-1.172-4.243 0s-1.172 3.071 0 4.243c0.628 0.628 1.466 0.919 2.288 0.874l4.197 4.197h-5.936c-0.549-0.614-1.347-1-2.236-1-1.657 0-3 1.343-3 3s1.343 3 3 3c0.888 0 1.686-0.386 2.236-1h5.936l-4.197 4.197c-0.822-0.046-1.66 0.245-2.288 0.874-1.172 1.172-1.172 3.071 0 4.243s3.071 1.172 4.243 0c0.628-0.628 0.919-1.466 0.874-2.288l4.197-4.197v5.936c-0.614 0.549-1 1.347-1 2.235 0 1.657 1.343 3 3 3s3-1.343 3-3c0-0.888-0.386-1.686-1-2.236v-5.936l4.197 4.197c-0.046 0.822 0.245 1.66 0.874 2.288 1.172 1.172 3.071 1.172 4.243 0s1.172-3.071 0-4.243c-0.628-0.628-1.466-0.919-2.288-0.874l-4.197-4.197h5.936c0.549 0.614 1.347 1 2.235 1 1.657 0 3-1.343 3-3s-1.343-3-3-3z"></path>
</symbol>
</defs>
</svg>
